<?xml version="1.0" encoding="utf-8"?>
<!-- Generator: Adobe Illustrator 18.1.0, SVG Export Plug-In . SVG Version: 6.00 Build 0)  -->
<svg version="1.1" id="Layer_1" xmlns:sketch="http://www.bohemiancoding.com/sketch/ns"
	 xmlns="http://www.w3.org/2000/svg" xmlns:xlink="http://www.w3.org/1999/xlink" x="0px" y="0px" viewBox="-577 300.5 200 200"
	 enable-background="new -577 300.5 200 200" xml:space="preserve">
<title>bird_01_yum-03-03 2</title>
<desc>Created with Sketch.</desc>
<g id="Home" sketch:type="MSPage">
	<g id="Desktop_V02-4" transform="translate(-247.000000, -1656.000000)" sketch:type="MSArtboardGroup">
		<g id="bird_01_yum-03-03-2" transform="translate(248.000000, 1656.000000)" sketch:type="MSLayerGroup">
			<path id="Shape" sketch:type="MSShapeGroup" fill="#08B844" d="M-474.7,402.9c-0.9,1.1-2,1.6-3,2c-1.5,0.6-3.1,1.1-4.7,1.7
				c-0.5,0.2-1.1,0.2-1.7,0.2c-0.7,0-1.2,0.2-1.6,0.8c-1.3,2.3-2.6,4.6-4,7c-0.3,0.6-0.7,1.2-1,1.9c-0.4,0.7-0.7,1.4-1.1,2.2
				c-0.1,0.3-0.3,0.6-0.5,0.9c-1.8,2.6-3.5,5.3-5.5,7.8c-1.9,2.4-3.1,5.1-4.7,7.7c-1.1,1.7-1.9,3.5-2.9,5.2
				c-0.3,0.5-0.7,0.9-1.1,1.4c-1.8,2.1-3.7,4.1-5.6,6.2c-0.2,0.2-0.3,0.4-0.6,0.5c-2.4,1.3-3.6,3.6-5.3,5.6
				c-0.4,0.5-0.4,1.1-0.3,1.8c0.3,2.1,0.6,4.3,0.7,6.5c0.1,1.9,0.2,3.9,0.2,5.9v0.8c-0.4,0-0.7-0.1-1-0.1c-0.8,0-1.2-0.4-1.5-1.1
				c-0.9-1.9-1-3.8-1.1-5.9c0-0.6,0.1-1.2-0.7-1.3c0.5-1.2,1.1-2.3,1-3.6c-0.8,0-1.3,0.3-1.9,0.7c-0.5,0.3-1,0.7-1.4,1.1
				c-0.2,0.2-0.4,0.5-0.5,0.7c-0.1,0.8-0.3,1.7-0.3,2.6c-0.1,1.4-0.1,2.8-0.1,4.2s0,2.7-0.1,4.1c0,0.6-0.2,1.2-0.3,1.9
				c-0.7,0-1.3,0.1-1.8,0c-0.3,0-0.7-0.4-0.9-0.7c-0.5-1.3-0.8-2.6-0.6-4c0.3-2.2,0.7-4.3,1-6.5c0-0.2,0-0.4,0.1-0.7
				c-0.3,0-0.6,0-0.8,0c-3,0.8-6.2,0.9-9.2,0.4c-1.6-0.2-3.1-0.4-4.8-0.4c-2,0-4-0.3-6-0.7c-1.7-0.3-3.5-0.7-5.2-1.1
				c-0.5-0.1-1,0-1.5,0c-0.8,0-1.5-0.1-2.3-0.3c-0.6-0.1-0.7-0.6-0.4-1.1c0.4-0.7,0.7-1.5,1.2-2.1c0.3-0.4,0.9-0.7,1.4-0.7
				c2-0.1,3.7-0.7,5.5-1.5c1.8-0.8,3.7-1.5,5.6-2.3c1.6-0.7,3.1-1.5,4.6-2.4c0.8-0.5,1.6-1.1,2.2-1.8c2.7-3.1,5.4-6.2,8-9.3
				c2.1-2.6,4-5.3,6-8c3.7-5.2,7.6-10.4,11.8-15.3c2.4-2.8,5-5.3,7.6-7.9c1.1-1.2,2.7-1.8,4.2-2.6c1.4-0.9,3-1.6,4.4-2.5
				c2.1-1.2,4.3-1.6,6.7-1.9c2.7-0.3,5.3,0.1,7.8,1c0.5,0.2,1.1,0.5,1.6,0.7c1.1,0.5,2.3,1.1,3.4,1.7
				C-475.6,402.2-475.2,402.6-474.7,402.9L-474.7,402.9z M-478.8,403.1c-0.4-0.8-0.9-1-1.5-1.2c-0.8-0.2-1.6-0.4-2.4-0.7
				c-2.2-0.7-4.5-1.3-6.9-0.9c-1.4,0.2-2.8,0.1-4.1,0.7c-2.7,1.3-5.2,3.1-7.6,4.9c-1.2,1-2.1,2.1-2.7,3.5c0,0.1-0.2,0.3-0.3,0.4
				c-1.2,1.8-2.5,3.6-3.8,5.4c-1.8,2.5-3.6,5-5.4,7.5c-0.2,0.2-0.3,0.5-0.5,0.8c-0.5,0.8-1,1.7-1.5,2.6c-1.2,2-2.6,3.9-3.5,6.1
				c-1,2.4-2.5,4.5-3.9,6.8c-0.3,0.6-0.9,1-1.2,1.6c-1.1,2-2.6,3.7-4.1,5.4c-0.4,0.5-0.7,1.1-1.1,1.7c-0.4,0.6-0.9,1.4-1.5,1.7
				c-1.1,0.4-1.9,1.2-2.5,2.2c-0.7,1-1.4,1.9-2.4,2.5c-0.7,0.4-1.3,1.1-2.1,1.5c-0.9,0.5-1.9,0.9-3.1,0.6c-1.3-0.3-2.7,0-4,0.8
				c0.4,0.2,0.8,0.3,1.1,0.3c2,0.1,3.9,0.3,5.9,0.4c3.7,0.2,7.4,0.1,10.6-1.9c1.1-0.7,2.4-1.1,3.4-2c1.6-1.4,3.3-2.8,4.4-4.6
				c0.5-0.9,1.4-1.5,2.1-2.3c0.6-0.7,1.3-1.4,1.9-2.2c0.9-1.2,1.8-2.4,2.7-3.6c1-1.3,2.1-2.5,3-3.9c1.8-2.7,3.5-5.5,5.2-8.3
				c2.3-3.9,5.1-7.5,8.1-11c2.3-2.6,4.3-5.4,6.6-8.1c1-1.2,2-2.5,3.3-3.4c1.5-1,3.3-1.7,5-2.5C-480.6,403.7-479.7,403.5-478.8,403.1
				L-478.8,403.1z"/>
			<path id="Shape_1_" sketch:type="MSShapeGroup" fill="#08B844" d="M-492.8,402.6c0.7,0.3,1.4,0.6,2.1,1c0.3,0.2,0.4,0.7,0.5,1.2
				c0,0.6-0.7,1.4-1.4,1.7c-0.6,0.2-1.1,0-1.5-0.4c-0.5-0.5-0.6-1.4-0.4-2C-493.3,403.6-493.1,403.3-492.8,402.6L-492.8,402.6z"/>
			<path id="Shape_2_" sketch:type="MSShapeGroup" fill="#08B844" d="M-426.7,330.5c0.9,0.1,1.8,0.4,2.7,0.6
				c5.3,1.4,10.4,3.5,15.4,5.8c2.8,1.3,5.4,3.1,7.3,5.7c0.8,1.2,1.7,2.4,2.4,3.6c0.3,0.5,0.6,1.2,0.6,1.8c0,1,0.3,2,0.7,2.9
				c0.6,1.4,0.8,2.9,0.4,4.4c-0.5,1.8-0.6,3.6-0.8,5.4c-0.1,1.4-0.6,2.8-0.9,4.1c-0.1,0.6-0.5,1.3-0.6,2c-0.5,2.9-1.8,5.5-3.3,8
				c-1.3,2.2-3.1,3.9-5.3,5.2c-1,0.5-2,1.1-3.1,1.5c-1.1,0.4-2.3,0.6-3.4,1c-1,0.3-2.1,0.6-3.2,0.5c-0.7,0-1.3,0.1-2,0.2
				c-1.3,0.3-2.6,0.7-4,0.9c-1.8,0.3-3.7,0.5-5.6,0.8c-2.5,0.4-5,0.9-7.7,0.7c-0.2,0-0.5,0-0.8,0c-2.4,0.5-4.8,0.1-7.3,0
				c-2.7-0.2-5.4-0.4-8-0.8c-1.1-0.1-2.3-0.5-3.4-0.8c-0.9-0.3-1.2-0.3-1.8,0.4c-1.4,1.9-2.9,3.7-3.5,6.1c0,0.2-0.1,0.4-0.3,0.6
				c-0.8,0.9-1.7,1.8-2.6,2.6c-0.2,0.2-0.6,0.3-0.8,0.2c-0.2-0.1-0.2-0.5-0.3-0.8c0-1.8,0-3.6-0.2-5.3c-0.2-2.1-0.2-4.3-2.3-5.7
				c-0.7-0.5-1.2-1.3-1.9-1.8c-1.3-0.9-2.2-2.4-3.7-3.1c-0.2-0.1-0.4-0.4-0.6-0.7c-1.2-1.7-2.3-3.5-2.8-5.6
				c-0.1-0.4-0.3-0.7-0.4-1.1c-1.2-3-2.4-6-2.6-9.3c0-0.8-0.1-1.6-0.2-2.4c-0.5-2.9-0.4-5.7,0.1-8.5c0.5-2.8,1.8-5.2,3.1-7.7
				c0.6-1.3,1.4-2.6,2.4-3.6c4.2-4.6,9.2-8,15.6-9.2c1.5-0.3,3-0.3,4.5-0.5c5-0.6,10-1,15.1-0.3
				C-435.6,329.1-431.1,329.8-426.7,330.5L-426.7,330.5z M-462.1,387c0.7-0.9,1.4-1.9,2.1-2.9c0.1-0.2,0.3-0.4,0.3-0.6
				c-0.2-1.1,0.7-1.4,1.1-1.9c0.9,0.1,1.8,0.4,2.6,0.4c4.9-0.3,9.6,0.4,14.4,1.1c5.4,0.8,10.8,1.1,16.3,0.5c3.5-0.3,7-1,10.2-2.6
				c1-0.5,2-0.9,3.1-1.2c3.6-1,6.1-3.5,8-6.5c3-4.5,4.3-9.5,5-14.7c0.1-1.1,0.3-2.2,0.4-3.3c0-2.4-0.3-4.6-1.6-6.7
				c-0.1-0.2-0.3-0.4-0.4-0.5c-1.2-0.4-1.8-1.6-2.7-2.4c-2.4-2.2-5.1-4-8-5.5c-4.4-2.3-9-4-13.8-5.4c-3.1-0.9-6.4-1.5-9.5-1.9
				c-3.5-0.4-7.1-0.5-10.5-0.4c-4.2,0.1-8.4,0.7-12.7,1.1c-0.3,0-0.7,0.1-1.1,0.1c-2.1,0-4.2,0.2-6.2,1.1c-0.7,0.3-1.4,0.5-2.2,0.8
				c-2.4,0.6-4.3,2.1-5.6,4.2c-1.3,2.2-2.6,4.5-3.6,6.9c-0.6,1.5-0.7,3-0.7,4.5c0,2.5,0.2,4.9,0.4,7.3c0,0.5,0.1,1,0.3,1.5
				c1.1,3.4,2.2,6.8,3.6,10c0.9,2,2.4,3.7,3.6,5.6c1.1,1.7,2.2,3.4,3.3,5c0.3,0.5,0.4,1.1,0.6,1.7c0.4,1.6,0.8,3.3,1.2,4.9
				c0.1,0.4,0.3,0.9,0.5,1.4h0.3C-462.9,388.2-462.5,387.6-462.1,387L-462.1,387z"/>
			<path id="Shape_3_" sketch:type="MSShapeGroup" fill="#08B844" d="M-447.5,346.8c1.7,1.2,2.7,2.3,2.5,4.2
				c-0.2,1.9-0.5,3.7-0.7,5.6c-0.1,0.6-0.1,1.2,0,1.8c1.5-1.1,2.7-2.5,3.6-4.1c0.5-1,1-2,1.5-3c0.7-1.6,1.4-2,3-1.9
				c1,0,1.9,0,2.9,0.6c0.7,0.4,1.6,0.4,2-0.6c1.4,0.8,1.9,1.9,2.3,3.4c0.9,3.2,1.1,3.6,4,1.8c0.9-0.5,1.7-1.3,2.6-1.8
				c0.5-0.3,1.2-0.8,1.8-0.8c1.1,0,2.3,0.2,3.5,0.3c1.3,0.2,1.7,0.7,1.1,1.9c-1.5,2.6-1.6,5.6-2.4,8.4c-0.3,1.2-0.2,2.6-0.3,3.9
				c0,0.8,0,1.6-0.2,2.4c-0.2,0.9-1.2,1.7-1.9,1.6c-0.9-0.1-1.1-0.9-1.3-1.6c-0.8-2.4-0.3-4.7,0.1-7.1c0.2-1.1,0.4-2.3,0.6-3.7
				c-1.5,0.5-2.3,1.3-3,2.3c-1.1,1.5-2.1,1.6-3.3,0.2c-0.8-0.9-1.6-1.8-2.7-3.1c-0.4,2-0.7,3.7-1,5.4c-0.1,0.8-0.2,1.6-0.4,2.4
				c-0.2,0.7-0.6,1.3-1.4,1.2c-0.9,0-1.1-0.8-1.1-1.5c0-1.1,0-2.3,0.2-3.4c0.5-2.6,1.2-5.1,1.8-7.6c0.3-1.4,0.2-1.5-0.9-2.4
				c-2.7,2.4-4,5.6-5.5,8.7c-1.1,2.4-2.7,4.5-5.1,5.8c-1.9,1-3,0.4-3.7-1.6c-0.6-1.8-0.8-3.6-0.4-5.5c0.5-2.8,1.1-5.5,1.6-8.2
				C-447.7,349.5-447.6,348.4-447.5,346.8L-447.5,346.8z"/>
			<path id="Shape_4_" sketch:type="MSShapeGroup" fill="#08B844" d="M-452.3,346.5c2.6,0.6,3.1,1.3,2.6,3.5
				c-0.9,3.8-1.9,7.6-2.9,11.4c-0.5,1.9-0.8,3.9-1.2,5.9c0,0.3,0,0.6-0.1,0.9c-0.2,0.7-0.7,1.1-1.5,1.1c-0.7,0-1-0.5-1.1-1.1
				c-0.1-1-0.3-2.1-0.2-3.2c0.1-1.4,0.3-2.7,0.6-4c0.3-1.4,0.5-2.7-0.5-4c-1.4-1.8-2.6-3.8-4-5.7c-0.2-0.2-0.3-0.6-0.6-0.7
				c-1.5-0.6-1.8-2.1-2.6-3.5c0.3,0,0.6-0.2,0.9-0.1c1.2,0.5,2.4,0.7,3.7,0.6c0.9-0.1,1.2,0.8,1.5,1.5c0.8,1.9,1.9,3.6,3.5,5.4
				C-453.1,351.8-451.9,349.5-452.3,346.5L-452.3,346.5z"/>
			<path id="Shape_5_" sketch:type="MSShapeGroup" fill="#08B844" d="M-412.8,352.9c1.1,1.5,1.5,2.8,1.1,4.2
				c-0.4,1.4-0.7,2.9-1.2,4.3c-0.1,0.4-0.6,0.9-1,0.9c-0.7,0-0.8-0.7-0.7-1.3c0.2-1.1,0.3-2.2,0.6-3.3
				C-413.5,356.1-413.1,354.6-412.8,352.9L-412.8,352.9z"/>
			<path id="Shape_6_" sketch:type="MSShapeGroup" fill="#08B844" d="M-417.2,365.7c0.1-0.2,0.3-0.6,0.6-0.7c0.2,0,0.7,0.2,0.8,0.5
				c0.3,0.7,0.8,1.2,1.5,1.6c0.7,0.4,1.1,1.1,0.8,1.9c-0.3,0.6-0.8,1.2-1.4,1.6c-0.7,0.4-1.7-0.2-1.9-1.2
				C-417.1,368.2-417.1,367.1-417.2,365.7L-417.2,365.7z"/>
		</g>
	</g>
</g>
</svg>
