<?xml version="1.0" encoding="UTF-8" standalone="no"?>
<svg width="155px" height="142px" viewBox="0 0 155 142" version="1.1" xmlns="http://www.w3.org/2000/svg" xmlns:xlink="http://www.w3.org/1999/xlink" xmlns:sketch="http://www.bohemiancoding.com/sketch/ns">
    <!-- Generator: Sketch 3.2 (9961) - http://www.bohemiancoding.com/sketch -->
    <title>bird_03_tasty</title>
    <desc>Created with Sketch.</desc>
    <defs></defs>
    <g id="Page-1" stroke="none" stroke-width="1" fill="none" fill-rule="evenodd" sketch:type="MSPage">
        <g id="bird_03_tasty" sketch:type="MSLayerGroup" transform="translate(-1.000000, 0.000000)" fill="#08B844">
            <g id="balloon" transform="translate(33.500000, 33.500000) scale(-1, 1) translate(-33.500000, -33.500000) " sketch:type="MSShapeGroup">
                <path d="M41.1,0.3 C45.4,-0.2 49.3,1.1 53.2,2.6 C54.7,3.2 55.8,4.2 56.9,5.2 C58.8,6.9 61.3,9 62.4,11.3 C63.2,12.8 63.7,14.4 63.6,16.1 C63.6,16.7 63.9,17.4 64.1,18 C64.2,18.5 64.5,19.1 64.5,19.6 C64.4,21 64.4,22.3 64.6,23.7 C64.9,25.4 64.8,27.1 65,28.9 C65.1,30.5 65.3,32.1 65.6,33.6 C66,35.7 66.2,37.7 65.8,39.7 C65.5,41.7 64.1,43.6 63.8,45.6 C63.6,46.9 62.9,47.9 62.1,48.8 C61.1,50 60,51.2 59,52.4 C57.8,53.8 56.3,54.8 54.7,55.6 C52.3,56.8 49.7,57.3 47.1,57.7 C46.7,57.7 46.3,57.9 45.9,58.1 C45.7,58.2 45.5,58.3 45.2,58.4 C42.2,59 39.3,59.5 36.3,60 C34.4,60.3 32.5,60.4 30.6,60.6 C28.9,60.7 27.1,60.9 25.4,61 C25.1,61 24.8,61 24.5,61.1 C22.7,61.6 21.1,61 19.7,60.1 C19,59.7 18.5,59.7 17.7,60.1 C15.5,61.1 13.1,61.8 11,63.2 C9.8,64 8.4,64.7 7.1,65.4 C6.2,65.9 5.3,66.2 4.3,66.6 C3.4,66.9 2.5,66.5 2.3,65.6 C2.2,65.2 2.3,64.8 2.2,64.5 C2.2,63.9 2.3,63.3 2.1,62.8 C1.3,61 1.9,59.5 2.5,57.8 C3.2,56.1 3.7,54.4 4.2,52.6 C4.5,51.7 4.4,50.9 4,50 C3.1,47.8 2.2,45.6 1.6,43.4 C0.2,38 0.4,32.7 1.8,27.3 C2.2,25.7 2.8,24.1 3.6,22.6 C5.9,18.2 8.3,13.8 11.7,10 C12.4,9.2 13.2,8.4 14,7.8 C16.2,6.2 18.7,5 21.2,3.9 C25.5,2.2 29.9,1.2 34.5,0.7 C36.8,0.4 38.8,0.4 40.7,0.3 L41.1,0.3 Z M7.5,59.6 C7.9,59.6 8.1,59.6 8.3,59.5 C10.3,58.6 12.5,57.9 14.3,56.8 C16.2,55.5 17.9,55.7 19.7,56.7 C20.5,57.1 21.3,57.4 22.2,57.5 C25.7,57.6 29.1,57.8 32.6,57.7 C36,57.7 39.4,57.3 42.8,57 C44,56.9 45.3,56.5 46.4,56.1 C50,54.7 53.3,52.8 56.2,50.4 C58.7,48.3 61.1,46.2 62.7,43.3 C63.4,42.1 63.7,40.9 63.7,39.6 C63.7,37.4 63.5,35.2 63.1,33 C62.8,31.2 62.7,29.4 62.8,27.6 C62.9,24.9 62.2,22.3 61.2,19.7 C61,19.1 61.1,18.7 61.2,18.2 C61.3,17.8 61.5,17.3 61.4,16.8 C61,15.5 60.6,14.1 60.1,12.9 C59.2,10.8 57.5,9.3 56.1,7.6 C55.6,7 54.8,6.8 54.2,6.4 C53.6,6.1 53,5.8 52.4,5.6 C50.5,5.1 48.6,4.3 46.7,4.3 C43.5,4.2 40.3,4.5 37.1,4.8 C34,5 30.9,5.4 27.9,6.5 C26.7,7 25.5,7.4 24.3,7.9 C21.3,8.9 18.8,10.8 16.4,12.7 C13.5,15.1 11.6,18.2 10.2,21.7 C9.6,23.3 9,24.8 8.2,26.3 C6.2,30.1 4.9,34.1 4.9,38.4 C4.9,39.7 4.8,41.1 4.9,42.4 C5.2,45.4 6.6,48 7.8,50.8 C8.4,52.2 8.8,53.6 9.3,55 C9.5,55.5 9.4,56 8.9,56.4 C7.9,57.2 7.7,58.3 7.5,59.6 L7.5,59.6 L7.5,59.6 Z" id="Shape"></path>
            </g>
            <g id="text" transform="translate(6.000000, 12.000000)" sketch:type="MSShapeGroup">
                <path d="M32.3,25 C31.7,25.2 31.4,25.3 31.1,25.4 C30.8,25.4 30.4,25.4 30.2,25.3 C29.5,24.7 28.9,23.9 28.2,23.2 C28.4,22.6 29,22.5 29.5,22.5 C31.9,22.2 34.4,21.7 36.8,22 C37.4,22 37.9,22 38.4,21.6 C39.3,20.9 40,21 40.8,21.8 C41.6,22.6 42.3,23.3 43,24.1 C43.3,24.4 43.7,24.7 44.1,25.1 C44.9,24.1 45.1,22.9 45.5,21.9 C45.8,21.1 46.2,20.9 47,21.1 C47.8,21.4 47.9,21.7 47.7,22.6 C47.3,24.7 46.9,26.7 46.5,28.8 C46.4,29.6 46.1,30.3 46,31.1 C45.8,32.1 45.6,33.1 45.4,34.1 C45.4,34.4 45.4,34.7 45.3,34.9 C45.1,35.6 44.5,35.7 44.1,35.1 C43.8,34.8 43.6,34.4 43.5,34 C43.3,32.9 43.1,31.7 43,30.6 C43,30 43,29.4 43.1,28.8 C43.1,28.2 43.1,27.8 42.7,27.3 C41.8,26.2 41,25.1 40.2,24 C39.3,22.8 39.2,22.8 38.1,23.7 C37.6,24.1 37.2,24.4 36.5,24.3 L35.5,24.3 C34.5,24.4 34.3,24.6 34.4,25.7 C34.5,27.5 34.7,29.3 34.9,31.2 C35,32.4 34.9,33 34.4,34 C33.5,33.9 33.3,33.2 33.1,32.5 C32.5,30.6 31.8,28.7 32.3,26.6 C32.5,26 32.3,25.6 32.3,25 L32.3,25 L32.3,25 Z" id="Shape_2_"></path>
                <path d="M38.5,10.8 C38.1,10.7 37.7,10.5 37.3,10.4 C35.6,10 35.4,9.6 35.6,7.9 L35.6,6.3 C35.5,3.8 37.8,2 40.2,2.8 L40.3,2.8 C41.1,3 42,3.2 41.9,4.3 C41.9,5.2 41.2,6.3 40.2,6.7 C39.8,6.8 39.4,7 38.7,7.3 C39.3,7.6 39.6,7.8 39.9,8 C42.8,9.3 43.5,12.7 41.3,15 C40.4,15.9 39.5,16.6 38.2,16.6 C37.3,16.6 36.5,16.3 36,15.5 C34.6,13.4 34.9,12.6 37.2,11.6 C37.6,11.5 38,11.3 38.3,11.1 C38.5,11 38.5,10.9 38.5,10.8 L38.5,10.8 L38.5,10.8 Z" id="Shape_3_"></path>
                <path d="M18.8,5.4 C18.1,8.4 18.1,11.2 18.6,14.1 C18.7,14.8 18.6,15.5 18.6,16.5 C18,16.2 17.6,16.1 17.5,15.8 C17.1,15 16.7,14.2 16.6,13.4 C16.3,11.6 16.1,9.7 15.9,7.9 C15.9,7.6 15.9,7.1 15.7,7 C15,6.4 15.2,5.7 15.2,5 C15.2,3.9 15.4,3.7 16.5,3.8 C18.8,4.1 21.1,3.5 23.4,3.3 C24.6,3.2 25.8,3.3 26.8,4.1 C27.4,4.6 27.9,5.2 27.8,6.1 C27.2,6.6 26.5,6.6 25.8,6.6 C24.3,6.6 24,7 24.2,8.4 C24.3,9.4 24.6,10.5 24.7,11.5 C24.8,12.2 24.8,12.9 24.8,13.7 C24.8,14.1 24.5,14.5 24.3,15 C23.2,14.5 22.6,13.9 22.6,12.9 C22.6,11.9 22.5,10.8 22.4,9.7 C22.4,9.1 22.3,8.6 22.2,8 C22.1,7.5 21.8,7.2 21.3,7.2 C20.3,7.2 19.7,6.7 19.5,5.8 C19.3,5.6 19.1,5.6 18.8,5.4 L18.8,5.4 L18.8,5.4 Z" id="Shape_4_"></path>
                <path d="M24.9,27.9 C24.1,27.8 23.5,27.6 22.8,27.5 C21.6,27.3 21.3,27.1 21.5,25.8 C21.5,25.5 21.6,25.1 21.6,24.8 C21.9,22.6 23.4,21.4 25.7,21.5 C26.5,21.5 27.1,21.7 27.6,22.6 C27.3,23.2 27,23.9 26.7,24.6 C26.9,24.8 27.1,25.1 27.4,25.3 C29,26.5 29.5,28.2 29.4,30.1 C29.4,30.5 29.3,31 29.1,31.3 C28.4,32.1 27.6,32.9 26.8,33.4 C25.7,34.1 24.6,33.6 24.2,32.4 C23.5,30.6 23.5,30.6 24.9,27.9 L24.9,27.9 L24.9,27.9 Z" id="Shape_5_"></path>
                <path d="M14,24.4 C14.1,24.4 14.4,24.2 14.5,24 C15.1,23 16,23.1 16.9,23.2 C17.2,23.2 17.6,23.6 17.7,23.9 C18,24.5 18.2,25.1 18.4,25.8 C18.7,26.8 19.2,27.6 20.2,28.1 C20.5,28.2 20.8,28.7 20.8,29 C20.8,30.4 21.6,31.5 22.1,32.8 C22.3,33.3 22.6,33.7 22.1,34.3 C21.1,34.1 20.4,33.4 19.8,32.6 C19.5,32.1 19.1,31.6 18.9,31 C18.5,30.2 17.9,30.1 17.2,30.2 C16.4,30.2 16.1,30.5 16,31.3 C15.9,32 15.9,32.7 15.8,33.3 C15.6,34.2 15.2,34.5 14.3,34.6 C13.5,34.6 13.2,34.4 13,33.6 C12.7,31.6 12.7,29.6 13.4,27.5 C13.7,26.4 13.8,25.5 14,24.4 L14,24.4 L14,24.4 Z" id="Shape_6_"></path>
                <path d="M13.3,24.1 C12.9,24.9 12.3,24.8 11.6,24.9 C10.8,25.1 10.1,25.2 9.4,25.5 C9.1,25.6 8.6,26.2 8.7,26.3 C9.4,27.1 8.6,27.9 8.7,28.8 C8.8,29.7 8.8,30.6 8.9,31.5 C9,32.3 9.2,33 9.3,33.8 C9.3,34.2 9.3,34.7 9.2,35.2 C8.1,35 7.5,34.6 7.2,33.6 C6.6,31.7 6.3,29.7 6.1,27.7 C6,26.3 5.8,26.1 4.4,26.4 C4.1,26.4 3.7,26.5 3.4,26.4 C2.5,26 1.7,25.6 0.9,25.1 L0.9,24.7 C1.1,24.6 1.4,24.5 1.7,24.5 C4.4,23.9 7.1,23.3 9.8,22.7 C10.1,22.6 10.5,22.6 10.8,22.6 C11.9,22.4 12.9,22.8 13.3,24.1 L13.3,24.1 L13.3,24.1 Z" id="Shape_7_"></path>
                <path d="M32.4,9.1 C31.2,8.2 30.7,7.2 30.5,6 C30.1,4.2 29.9,2.4 30.1,0.5 C30.9,0.1 31.8,0.3 32.6,0.6 C32.9,0.7 33.3,1.3 33.3,1.7 C33.3,2.6 33.2,3.6 33.2,4.5 C33.1,5.4 33,6.4 32.9,7.3 C32.7,7.9 32.5,8.4 32.4,9.1 L32.4,9.1 L32.4,9.1 Z" id="Shape_8_"></path>
            </g>
            <g id="bird" transform="translate(113.000000, 106.500000) scale(-1, 1) translate(-113.000000, -106.500000) translate(70.000000, 71.000000)" sketch:type="MSShapeGroup">
                <path d="M46.3,69.4 C43.9,68.3 43.9,68.3 44,66.2 C44.1,62.9 44.4,59.6 45,56.4 C45,56.1 45,55.7 45.1,55 C44.5,55.5 44.2,55.7 44,56 C43.6,56.9 43.2,57.9 43,59 C42.3,62.3 42.1,65.6 42.5,69 C42.5,69.1 42.6,69.4 42.5,69.5 C42.3,70 42.1,70.6 41.6,70.8 C41,71.1 40.7,70.5 40.4,70 C39.8,69.1 39.6,68.2 40,67.2 C40.1,66.8 40.2,66.4 40.3,65.9 C40.4,63.8 40.6,61.7 40.7,59.6 L40.7,58.6 C40,59 39.5,59.2 39,59.5 C37,60.8 35,62.2 32.9,63.4 C29.4,65.5 25.5,66.4 21.6,67.4 C19.6,68 17.5,68.3 15.5,68.9 C13.5,69.5 11.6,69.2 9.6,69 C7.9,68.8 6.2,68.5 4.5,68.3 C3.2,68.1 1.9,67.7 0.8,66.9 C-0.1,66.2 -0.2,65.7 0.3,64.3 C0.7,63 1,62.8 2.3,62.8 C2.9,62.8 3.4,62.7 3.9,62.6 C8.7,61.4 12.9,59.2 17,56.4 C20.5,54 22.9,50.6 25.5,47.5 C30.5,41.3 34.7,34.6 39.3,28.1 C42.4,23.6 45.7,19.3 49.4,15.2 C51.3,13 53.3,10.8 55.4,8.8 C59.3,5.1 63.7,2.2 69,1 C72.8,0.2 76.6,0.2 80.2,1.9 C80.5,2.1 80.9,2.3 81.1,2.6 C82,3.4 82.9,4.2 84.3,4.2 C85,4.2 85.8,4.6 85.9,5.4 C86,6.2 85.4,6.7 84.8,7 C83.8,7.5 82.7,8 81.6,8.5 C78.1,9.9 75.4,12.2 73,15 C72,16.1 71,17.2 70,18.3 C69.6,18.8 69.1,19.3 68.8,19.9 C66.2,24.1 63.6,28.4 61.1,32.6 C58.4,37.2 55.8,41.8 52.9,46.3 C52,47.8 50.8,49.1 49.5,50.4 C48.3,51.7 47.7,53.3 47.5,55 C47.1,59.1 46.2,63.1 46.5,67.3 C46.4,67.9 46.3,68.6 46.3,69.4 L46.3,69.4 L46.3,69.4 Z M78.1,5 C77.9,4.9 77.8,4.7 77.7,4.7 C76,4.7 74.2,4.5 72.6,4.7 C69.7,5.1 66.9,6.1 64.4,7.6 C62.6,8.6 60.7,9.6 59.2,11 C54.7,15.2 50.7,20 47.2,25 C42.7,31.4 38.3,37.9 33.2,43.9 C31,46.5 29.1,49.4 26.7,52 C24,54.8 21.7,58 18.3,60.1 C14.8,62.2 11.4,64.7 7.2,65.3 C6.9,65.3 6.7,65.6 6.2,65.9 C7.9,66.5 9.3,66.9 10.8,66.9 C12.6,66.9 14.4,66.7 16.2,66.7 C19.4,66.7 22.5,66 25.3,64.6 C29.6,62.4 33.7,60 37.8,57.5 C41.4,55.2 44.2,52 47.1,48.8 C48.3,47.5 49.5,46.1 50.3,44.6 C51.8,42 53,39.2 54.4,36.5 C55.5,34.3 56.8,32.2 57.9,30 C58.8,28.2 59.8,26.4 60.4,24.5 C61,22.6 61.8,20.8 62.9,19.1 C63.1,18.7 63.4,18.3 63.5,18 C63.8,16.6 64.6,15.6 65.5,14.7 C66.5,13.7 67.6,12.6 68.7,11.6 C71.4,9.2 74.3,7 77.7,5.4 C77.8,5.3 77.9,5.1 78.1,5 L78.1,5 L78.1,5 Z" id="Shape_1_"></path>
                <path d="M61.2,11.7 C61.5,10 62.6,9.3 64.1,9.3 C65.7,9.2 66.7,10.5 66.2,12 C65.9,12.9 65.3,13.6 64.2,13.7 C63.2,13.8 62.2,13.7 61.7,12.6 C61.5,12.2 61.4,11.9 61.2,11.7 L61.2,11.7 L61.2,11.7 Z" id="Shape_9_"></path>
            </g>
        </g>
    </g>
</svg>