<?xml version="1.0" encoding="UTF-8" standalone="no"?>
<svg width="80px" height="80px" viewBox="0 0 80 80" version="1.1" xmlns="http://www.w3.org/2000/svg" xmlns:xlink="http://www.w3.org/1999/xlink" xmlns:sketch="http://www.bohemiancoding.com/sketch/ns">
    <!-- Generator: Sketch 3.2.2 (9983) - http://www.bohemiancoding.com/sketch -->
    <title>facebook-trans-default</title>
    <desc>Created with Sketch.</desc>
    <defs></defs>
    <g id="Home" stroke="none" stroke-width="1" fill="none" fill-rule="evenodd" sketch:type="MSPage">
        <g id="facebook-trans-default" sketch:type="MSArtboardGroup" fill="#FFFFFF">
            <g id="Fill-172-+-Fill-173" sketch:type="MSLayerGroup" transform="translate(10.000000, 10.000000)">
                <path d="M29.9982735,59.2009871 C46.217302,59.2009871 59.3648327,46.1281477 59.3648327,29.9991415 C59.3648327,13.8735692 46.217302,0.799012866 29.9982735,0.799012866 C13.7809714,0.799012866 0.635167347,13.8735692 0.635167347,29.9991415 C0.635167347,46.1281477 13.7809714,59.2009871 29.9982735,59.2009871" id="Fill-172" fill-opacity="0" sketch:type="MSShapeGroup"></path>
                <path d="M23.0637388,24.7425577 L26.1007061,24.7425577 L26.1007061,21.8082941 C26.1007061,20.5137156 26.1335102,18.5186224 27.0779224,17.2824201 C28.0741306,15.974106 29.4398163,15.0847272 31.791351,15.0847272 C35.6207959,15.0847272 37.2333755,15.6272826 37.2333755,15.6272826 L36.4754286,20.0999312 C36.4754286,20.0999312 35.2098816,19.7376553 34.0289347,19.7376553 C32.8479878,19.7376553 31.791351,20.1583075 31.791351,21.3309827 L31.791351,24.7425577 L36.6325429,24.7425577 L36.2941429,29.1104725 L31.791351,29.1104725 L31.791351,44.2865728 L26.1007061,44.2865728 L26.1007061,29.1104725 L23.0637388,29.1104725 L23.0637388,24.7425577" id="Fill-173" fill-opacity="0.9" sketch:type="MSShapeGroup"></path>
            </g>
        </g>
    </g>
</svg>