<?xml version="1.0" encoding="UTF-8" standalone="no"?>
<svg width="60px" height="53px" viewBox="0 0 60 53" version="1.1" xmlns="http://www.w3.org/2000/svg" xmlns:xlink="http://www.w3.org/1999/xlink" xmlns:sketch="http://www.bohemiancoding.com/sketch/ns">
    <!-- Generator: Sketch 3.2 (9961) - http://www.bohemiancoding.com/sketch -->
    <title>icon-sign-up</title>
    <desc>Created with Sketch.</desc>
    <defs></defs>
    <g id="Home" stroke="none" stroke-width="1" fill="none" fill-rule="evenodd" sketch:type="MSPage">
        <g id="Desktop_V02-5" sketch:type="MSArtboardGroup" transform="translate(-275.000000, -1730.000000)">
            <g id="icon-sign-up" sketch:type="MSLayerGroup" transform="translate(255.000000, 1706.000000)">
                <rect id="Rectangle-76" fill-opacity="0" fill="#FFFFFF" sketch:type="MSShapeGroup" x="0" y="0" width="100" height="100"></rect>
                <g id="Group" transform="translate(21.000000, 25.000000)" stroke="#0AC256" stroke-width="2" sketch:type="MSShapeGroup" stroke-linejoin="round">
                    <path d="M24,34.5 L3,34.5 C0.912,34.5 0,32.588 0,30.5 L0,4.5 C0,2.412 0.912,0.5 3,0.5 L49,0.5 C51.088,0.5 52,2.412 52,4.5 L52,15.5" id="Stroke-1331" stroke-linecap="round"></path>
                    <path d="M51.125,1.5 L26.479,21.5 L0.875,1.5" id="Stroke-1332"></path>
                    <path d="M38.8223,48.0791 L29.9963,50.6001 L32.5183,41.7741 L51.4343,22.8571 L57.7393,29.1621 L38.8223,48.0791 L38.8223,48.0791 Z" id="Stroke-1333" stroke-linecap="round"></path>
                    <path d="M46.3911,27.9014 L52.6951,34.2054" id="Stroke-1334"></path>
                    <path d="M32.5181,41.7744 L38.8221,48.0794" id="Stroke-1335" stroke-linecap="round"></path>
                </g>
            </g>
        </g>
    </g>
</svg>