<?xml version="1.0" encoding="UTF-8" standalone="no"?>
<svg width="56px" height="60px" viewBox="0 0 56 60" version="1.1" xmlns="http://www.w3.org/2000/svg" xmlns:xlink="http://www.w3.org/1999/xlink" xmlns:sketch="http://www.bohemiancoding.com/sketch/ns">
    <!-- Generator: Sketch 3.2 (9961) - http://www.bohemiancoding.com/sketch -->
    <title>Group</title>
    <desc>Created with Sketch.</desc>
    <defs></defs>
    <g id="Home" stroke="none" stroke-width="1" fill="none" fill-rule="evenodd" sketch:type="MSPage">
        <g id="Desktop_V02-5" sketch:type="MSArtboardGroup" transform="translate(-692.000000, -1726.000000)" stroke="#0AC256" stroke-width="2" stroke-linejoin="round">
            <g id="Group" sketch:type="MSLayerGroup" transform="translate(693.000000, 1727.000000)">
                <path d="M30,20 L30,0" id="Stroke-3315" stroke-linecap="round" sketch:type="MSShapeGroup"></path>
                <path d="M20,0 L40,0" id="Stroke-3316" stroke-linecap="round" sketch:type="MSShapeGroup"></path>
                <path d="M25,18 L30,20 L35,18" id="Stroke-3317" stroke-linecap="round" sketch:type="MSShapeGroup"></path>
                <path d="M0,28 C13.232,28 24,17.23 24,4 C10.768,4 0,14.768 0,28 L0,28 Z" id="Stroke-3318" sketch:type="MSShapeGroup"></path>
                <path d="M7.058,26.939 C6.371,29.171 6,31.541 6,34 C6,47.253 16.746,58 30,58 C43.254,58 54,47.253 54,34 C54,20.744 43.254,10 30,10 C27.543,10 25.172,10.371 22.94,11.056" id="Stroke-3319" stroke-linecap="round" sketch:type="MSShapeGroup"></path>
            </g>
        </g>
    </g>
</svg>