<?xml version="1.0" encoding="UTF-8" standalone="no"?>
<svg width="92px" height="53px" viewBox="0 0 92 53" version="1.1" xmlns="http://www.w3.org/2000/svg" xmlns:xlink="http://www.w3.org/1999/xlink" xmlns:sketch="http://www.bohemiancoding.com/sketch/ns">
    <!-- Generator: Sketch 3.2.2 (9983) - http://www.bohemiancoding.com/sketch -->
    <title>johny-truck</title>
    <desc>Created with Sketch.</desc>
    <defs></defs>
    <g id="Home" stroke="none" stroke-width="1" fill="none" fill-rule="evenodd" sketch:type="MSPage">
        <g id="Artboard-44" sketch:type="MSArtboardGroup" transform="translate(-4.000000, -27.000000)" stroke="#08B844" stroke-width="2">
            <g id="johny-truck" sketch:type="MSLayerGroup" transform="translate(5.000000, 28.000000)">
                <path d="M4.69154095,41 L0,41 L0,29.1045546 C0,27.4842489 1.38728269,26.1707317 3.10752992,26.1707317 L24.2241379,26.1707317 L31.9827586,13 L38.6548751,13 L46,13 L46,26.1707317 L84.8004361,26.1707317 L90,26.1707317 L90,41 L80.9302179,41 M61,41 L23,41" id="Rectangle-311" sketch:type="MSShapeGroup"></path>
                <path d="M49.7672414,0 L32.5862069,0 L25.336651,12.1470337 C25.0597863,12.6109358 25.2774779,13 25.8324475,13 L46,13 L46,26 L90,26 L90,0 L49.7672414,0 Z" id="Rectangle-313" sketch:type="MSShapeGroup"></path>
                <circle id="Oval-174" sketch:type="MSShapeGroup" cx="13.6551724" cy="41.4857143" r="9"></circle>
                <circle id="Oval-175" sketch:type="MSShapeGroup" cx="71.0689655" cy="41.4857143" r="9"></circle>
                <path d="M56,20 L56,25" id="Line" sketch:type="MSShapeGroup"></path>
                <path d="M66,20 L66,25" id="Line-2" sketch:type="MSShapeGroup"></path>
                <path d="M76,20 L76,25" id="Line-3" sketch:type="MSShapeGroup"></path>
                <path d="M46.5517241,19.0571429 L84.5517241,19.0571429" id="Line" stroke-linecap="square" sketch:type="MSShapeGroup"></path>
                <path d="M29,26 L33.1825303,18 L38,18" id="Line" stroke-linecap="round" sketch:type="MSShapeGroup"></path>
                <path d="M46,11 L46,4 L86,4 L86,26" id="Line-4" stroke-linecap="square" sketch:type="MSShapeGroup"></path>
            </g>
        </g>
    </g>
</svg>