<?xml version="1.0" encoding="UTF-8" standalone="no"?>
<svg width="81px" height="80px" viewBox="0 0 81 80" version="1.1" xmlns="http://www.w3.org/2000/svg" xmlns:xlink="http://www.w3.org/1999/xlink" xmlns:sketch="http://www.bohemiancoding.com/sketch/ns">
    <!-- Generator: Sketch 3.2.2 (9983) - http://www.bohemiancoding.com/sketch -->
    <title>instagram-trans-default</title>
    <desc>Created with Sketch.</desc>
    <defs></defs>
    <g id="Home" stroke="none" stroke-width="1" fill="none" fill-rule="evenodd" sketch:type="MSPage">
        <g id="instagram-trans-default" sketch:type="MSArtboardGroup" transform="translate(0.520000, 0.000000)" fill="#FFFFFF">
            <g id="Fill-203-+-Fill-243" sketch:type="MSLayerGroup" transform="translate(10.000000, 10.000000)">
                <path d="M30,59.2018456 C46.2190286,59.2018456 59.3648327,46.1255723 59.3648327,29.9982831 C59.3648327,13.8727107 46.2190286,0.798154392 30,0.798154392 C13.7792449,0.798154392 0.635167347,13.8727107 0.635167347,29.9982831 C0.635167347,46.1255723 13.7792449,59.2018456 30,59.2018456" id="Fill-203" fill-opacity="0" sketch:type="MSShapeGroup"></path>
                <path d="M41.8250082,38.9573159 C41.8250082,40.5008518 40.5629143,41.7559406 39.0107633,41.7559406 L20.9961429,41.7559406 C19.4439918,41.7559406 18.181898,40.5008518 18.181898,38.9573159 L18.181898,27.0022094 L22.5655592,27.0022094 C22.187449,27.9293611 21.9750857,28.9406433 21.9750857,30 C21.9750857,34.4022538 25.5766286,37.9855235 30.0034531,37.9855235 C34.4302776,37.9855235 38.0318204,34.4022538 38.0318204,30 C38.0318204,28.9406433 37.8177306,27.9293611 37.4413469,27.0022094 L41.8250082,27.0022094 L41.8250082,38.9573159 L41.8250082,38.9573159 Z M25.8131633,27.0022094 C26.7523959,25.7076309 28.278649,24.8594587 30.0034531,24.8594587 C31.7282571,24.8594587 33.2545102,25.7076309 34.1937429,27.0022094 C34.8066612,27.8469476 35.1726857,28.8805501 35.1726857,30 C35.1726857,32.8329636 32.8522286,35.1388243 30.0034531,35.1388243 C27.1546776,35.1388243 24.8359469,32.8329636 24.8359469,30 C24.8359469,28.8805501 25.2019714,27.8469476 25.8131633,27.0022094 L25.8131633,27.0022094 Z M40.6388816,18.7642946 L41.2880571,18.7625776 L41.2880571,23.7125377 L36.3260082,23.7279902 L36.3087429,18.7780302 L40.6388816,18.7642946 L40.6388816,18.7642946 Z M39.0107633,15.3990772 L20.9961429,15.3990772 C17.8676694,15.3990772 15.3210367,17.929858 15.3210367,21.0426841 L15.3210367,38.9573159 C15.3210367,42.070142 17.8676694,44.6009228 20.9961429,44.6009228 L39.0107633,44.6009228 C42.1392367,44.6009228 44.6858694,42.070142 44.6858694,38.9573159 L44.6858694,21.0426841 C44.6858694,17.929858 42.1392367,15.3990772 39.0107633,15.3990772 L39.0107633,15.3990772 Z" id="Fill-243" fill-opacity="0.9" sketch:type="MSShapeGroup"></path>
            </g>
        </g>
    </g>
</svg>