<?xml version="1.0" encoding="UTF-8" standalone="no"?>
<svg width="890px" height="229px" viewBox="0 0 890 229" version="1.1" xmlns="http://www.w3.org/2000/svg" xmlns:xlink="http://www.w3.org/1999/xlink" xmlns:sketch="http://www.bohemiancoding.com/sketch/ns">
    <!-- Generator: Sketch 3.2 (9961) - http://www.bohemiancoding.com/sketch -->
    <title>johnysgarden</title>
    <desc>Created with Sketch.</desc>
    <defs></defs>
    <g id="Home" stroke="none" stroke-width="1" fill="none" fill-rule="evenodd" sketch:type="MSPage">
        <g id="Desktop_V02-5" sketch:type="MSArtboardGroup" transform="translate(-276.000000, -268.000000)" fill="#FFFFFF">
            <g id="johnysgarden" sketch:type="MSLayerGroup" transform="translate(276.000000, 268.000000)">
                <g id="Group" sketch:type="MSShapeGroup">
                    <path d="M329.593717,123.236395 C328.468567,124.520107 327.343418,125.80382 326.218269,127.087532 C325.468169,127.91817 324.71807,128.673295 323.96797,129.42842 L323.892961,129.503932 C321.567652,129.12637 321.267612,131.84482 319.617393,132.373407 C317.517115,133.053019 315.341826,133.883657 313.166538,134.336732 C311.816359,134.638782 310.31616,134.638782 309.040991,134.261219 C307.540792,133.808144 306.115603,132.901994 304.915443,131.920332 C303.790294,131.014182 302.890175,129.73047 301.915045,128.597782 C300.639876,127.238557 299.289697,126.181382 297.489458,125.577282 C295.914249,125.048695 294.56407,124.067032 293.138881,123.160882 C292.238762,122.556782 291.713692,122.858832 291.038603,123.462932 C287.588145,126.936507 284.137687,130.33457 280.68723,133.808144 C280.01214,134.487757 279.487071,135.318394 279.037011,136.073519 C277.986872,137.734794 276.261643,138.338894 274.611424,139.018507 C270.485877,140.755294 267.785519,139.924657 264.635101,136.677619 C260.434544,132.373407 259.159374,126.860995 258.259255,121.197557 C257.734185,118.177058 257.209116,115.156558 256.984086,112.136058 C256.759056,108.737995 256.759056,105.339933 256.759056,101.866358 C256.759056,100.431621 256.984086,99.0723959 257.059096,97.6376584 C257.059096,97.260096 256.909076,96.7315085 256.684046,96.5804835 C256.459016,96.4294585 255.933947,96.655996 255.633907,96.807021 C253.458618,98.3172709 251.28333,99.8275209 249.183051,101.488796 C248.432952,102.017383 247.982892,102.999046 247.232792,103.527633 C245.657584,104.735833 243.782335,105.566471 242.432156,107.001208 C238.231599,111.531958 233.956031,116.062708 230.430564,121.197557 C230.055514,121.801657 229.830484,122.556782 229.605454,123.236395 C228.930365,125.652795 228.255275,128.144707 227.580186,130.561107 C227.580186,130.63662 227.580186,130.787645 227.505176,130.787645 C226.230007,132.373407 224.954838,133.959169 223.604658,135.544932 C223.304619,135.922494 222.854559,136.224544 222.704539,136.602107 C222.329489,138.187869 220.079191,139.396069 218.278952,138.942994 C217.378833,138.716457 216.553723,137.130694 216.253683,136.073519 C215.203544,132.675457 214.453445,129.12637 213.553325,125.728307 C213.478315,125.275232 213.178276,124.89767 212.953246,124.369082 C211.002987,125.728307 209.127738,126.936507 207.402509,128.22022 C205.227221,129.881495 202.976922,131.391745 200.126544,131.391745 C198.551335,131.391745 197.126146,131.014182 195.775967,130.108032 C193.300639,128.446757 191.42539,126.181382 189.475132,123.99152 C189.175092,123.68947 188.950062,123.311907 188.650022,123.160882 C184.224435,120.36692 182.199167,115.987195 180.773978,111.30542 C179.273779,106.321596 179.048749,101.186746 179.273779,96.051896 C179.273779,95.2212585 179.348788,94.3151086 179.273779,93.4844711 C179.198769,92.3517837 178.598689,92.0497337 177.77358,92.7293461 C175.523281,94.4661336 173.423002,96.2784335 172.372863,99.0723959 C171.247714,102.017383 170.197575,104.886858 168.997415,107.831846 C168.547356,108.88902 167.872266,109.79517 167.422207,110.852345 C166.072027,113.797333 164.871868,116.817833 163.296659,119.687308 C161.79646,122.405757 161.64644,125.426257 161.196381,128.371245 C160.971351,129.881495 160.446281,131.089695 158.871072,131.54277 C158.195983,131.769307 157.595903,132.222382 156.845804,132.373407 C155.195585,132.826482 153.845406,132.524432 152.345207,131.391745 C150.394948,129.805982 149.419819,127.61612 147.91962,125.80382 C146.419421,123.840495 144.844212,122.028195 142.518903,120.97102 C140.943695,120.291408 140.793675,119.309745 141.693794,117.799495 C142.743933,116.13822 143.494033,114.401433 143.344013,112.287083 C143.269003,111.30542 143.644053,110.323758 143.794073,109.342095 C144.469162,105.490958 145.069242,101.639821 145.819341,97.8641959 C147.0195,91.6721712 148.369679,85.5556589 149.494829,79.4391467 C149.869878,77.4758218 149.794869,75.5124969 150.019898,73.4736594 C150.169918,71.8123845 150.469958,70.1511096 150.694988,68.4898347 C151.220058,64.7897223 151.745127,61.0140975 152.270197,57.3139851 C152.570237,55.1241227 153.020296,52.9342603 153.320336,50.7443979 C153.320336,50.5933729 153.395346,50.5178604 153.395346,50.3668354 C153.770396,45.3830106 155.945684,40.8522608 156.845804,35.9439485 C157.520893,32.4703737 158.721052,29.0723113 158.270993,25.4477114 C158.120973,24.315024 159.771192,22.4272116 160.971351,22.4272116 C163.896739,22.4272116 166.897137,21.7475991 169.822525,23.0313115 C173.423002,24.617074 175.898331,28.5437238 175.148231,32.3193487 C174.548152,35.415361 173.873062,38.4358609 173.272983,41.5318733 C173.122963,42.4380232 173.272983,43.3441732 173.047953,44.2503232 C171.997813,48.327998 170.797654,52.4056728 169.747515,56.4833477 C169.447475,57.4650101 169.297455,58.5221851 169.072425,59.5038475 C168.847396,60.636535 168.472346,61.6937099 168.322326,62.8263974 C167.872266,66.3754847 166.372067,69.7735471 166.972147,73.4736594 C167.422207,76.2676218 168.322326,76.5696718 170.722644,75.0594219 C173.347993,73.3226345 176.273381,72.038922 179.423798,72.1144345 C181.824117,72.189947 184.149425,72.794047 186.474734,73.096097 C187.899923,73.247122 189.400122,73.398147 190.825311,73.398147 C193.075609,73.3226345 195.325908,72.945072 197.576206,73.0205845 C199.676485,73.096097 201.851773,75.5880094 201.776763,77.7023593 C201.626743,80.5718342 201.176684,83.3657965 200.876644,86.2352714 C200.801634,87.2924464 200.801634,88.4251338 200.726624,89.4823088 C200.726624,89.6333338 200.801634,89.8598713 200.801634,90.0108963 C200.351574,93.3334461 199.826505,96.655996 199.376445,99.9785458 C199.151415,101.413283 199.076405,102.848021 198.926385,104.282758 C198.476326,108.133896 198.326306,111.90952 199.526465,115.685145 C199.526465,115.760658 199.601475,115.83617 199.601475,115.911683 C200.876644,119.007695 201.326704,119.007695 203.802032,117.421933 C208.227619,114.62797 211.978116,111.078883 215.803624,107.605308 C217.453843,106.170571 217.453843,104.131733 218.053922,102.319433 C218.879032,99.6009834 219.629131,96.807021 220.604261,94.0885711 C221.95444,90.1619213 223.529649,86.3862964 224.879828,82.4596466 C225.779947,79.8167092 226.305017,77.0227468 227.130126,74.3798094 C227.205136,74.0777594 228.030245,73.6246844 228.330285,73.7001969 C229.680464,74.2287844 231.105653,74.8328844 232.305813,75.5880094 C233.731002,76.5696718 235.156191,77.6268468 236.20633,78.9105592 C237.481499,80.4963217 238.381618,82.3841341 239.431758,84.196434 C239.656788,84.5739965 239.731798,85.1780965 239.881817,85.9332214 C240.556907,85.5556589 241.231997,85.404634 241.682056,84.951559 C243.557305,83.3657965 245.357544,81.7045216 247.232792,80.1187592 C250.008161,77.7778718 253.008559,75.8145468 256.609036,75.1349344 C257.734185,74.9083969 259.084364,75.5124969 260.134504,75.9655718 C260.809593,76.2676218 261.409673,77.0227468 261.859733,77.7023593 C263.509951,80.2697842 265.83526,81.7045216 268.610628,82.6106716 C271.160966,83.441309 271.686036,84.196434 271.461006,86.7638589 C271.235976,90.2374338 270.785917,93.6354961 270.560887,97.109071 C270.410867,100.280596 270.485877,103.452121 270.410867,106.623646 C270.335857,107.982871 269.960807,109.266583 269.660767,110.625808 C268.760648,114.476945 268.235578,118.403595 269.060688,122.330245 C269.210708,123.236395 269.660767,123.68947 270.560887,123.538445 C272.436135,123.236395 274.386394,123.009857 276.261643,122.405757 C279.487071,121.424095 282.712498,120.215895 285.862916,119.083208 C286.613016,118.781158 287.288105,118.328083 288.113215,118.101545 C289.613414,117.64847 289.538404,116.591295 289.313374,115.383095 C288.938324,113.268745 288.563274,111.078883 288.338245,108.88902 C287.963195,105.113396 289.013334,101.488796 289.988464,97.8641959 C292.238762,89.1802588 295.83924,81.1759341 300.264827,73.398147 C300.864906,72.340972 301.690016,72.038922 302.890175,72.1144345 C304.240354,72.189947 305.590533,71.887897 306.865702,72.1144345 C308.590931,72.491997 310.24115,73.398147 311.891369,73.9267344 C314.216677,74.6818594 315.041787,76.4941593 315.641866,78.6840217 C315.791886,79.2881217 316.091926,79.8922217 316.316956,80.4963217 C316.767015,81.5534966 317.142065,82.5351591 315.941906,83.441309 C315.716876,83.6678465 315.641866,84.196434 315.566856,84.5739965 C315.116796,87.2169339 314.966777,89.9353838 314.216677,92.4272962 C313.316558,95.5233085 311.891369,98.3927834 310.841229,101.413283 C309.94111,104.056221 309.191011,106.850183 308.440911,109.568633 C308.140871,110.70132 307.990851,111.90952 307.690812,113.042208 C307.090732,115.458608 307.090732,117.799495 307.765821,120.215895 C308.065861,121.348582 308.740951,121.499607 309.56606,120.517945 C314.141667,115.609633 318.192204,110.323758 321.417632,104.433783 C323.292881,101.035721 325.843219,98.0152209 328.018508,94.6926711 C329.593717,92.2762712 331.018906,89.7088463 332.519105,87.2169339 C333.644254,85.3291215 334.769403,83.441309 335.969562,81.7045216 C336.869682,80.3452967 338.369881,80.1942717 339.87008,80.2697842 C343.320537,80.4963217 346.695985,80.7228591 350.146443,80.7983716 C351.946682,80.8738841 352.921811,81.7800341 352.921811,83.8188715 C352.771791,88.8026963 352.696781,93.8620336 352.171711,98.7703459 C351.871672,102.017383 350.971552,105.188908 350.371473,108.435945 C349.996423,110.474783 349.771393,112.51362 349.696383,114.552458 C349.621373,118.177058 348.571234,121.650632 347.746124,125.124207 C346.921015,128.446757 345.945886,131.769307 345.345806,135.167369 C344.970756,137.357232 345.120776,139.622607 344.820736,141.812469 C344.520697,143.851307 343.995627,145.814631 343.620577,147.777956 C343.395547,148.910644 343.170517,150.043331 342.795468,151.176019 C342.420418,152.535244 341.895348,153.894469 341.445289,155.253694 C340.695189,157.519068 340.0201,159.859956 339.27,162.125331 C338.594911,164.013143 337.919821,165.825443 337.094712,167.637743 C335.744533,170.733755 334.169324,173.754255 332.819144,176.850268 C331.318946,180.24833 330.043776,183.797417 328.543577,187.19548 C327.868488,188.781242 326.968368,190.21598 326.218269,191.72623 C324.86809,194.444679 323.667931,197.238642 322.317752,199.957092 C321.942702,200.712217 321.492642,201.467342 320.892563,201.920417 C319.542383,202.977592 318.867294,204.336817 318.192204,205.922579 C317.667135,207.206291 316.692005,208.263466 315.866896,209.396154 C314.216677,211.586016 313.166538,214.077929 310.991249,215.890229 C309.71608,216.947403 308.365901,217.551503 306.715682,217.702528 C304.465384,218.004578 302.215085,218.608678 299.964787,218.835216 C298.314568,219.061753 296.514329,219.137266 294.86411,218.910728 C291.263633,218.382141 287.663155,217.551503 284.062678,216.947403 C282.262439,216.645353 280.38719,216.569841 278.661961,216.041254 C277.686832,215.739204 277.011742,214.682029 276.186633,213.926904 C275.886593,213.624854 275.736573,213.171779 275.361523,213.020754 C271.461006,211.132941 267.560489,209.245129 263.359932,208.187954 C262.084762,207.885904 261.859733,207.281804 262.009752,206.224629 C262.909872,200.636704 264.035021,195.199804 267.335459,190.367005 C269.135698,187.724067 271.235976,185.534205 273.411265,183.344342 C274.611424,182.136142 275.961603,180.927942 277.386792,179.94628 C279.7121,178.360518 282.112419,177.001293 284.437727,175.340018 C288.563274,172.470543 293.138881,172.923618 297.639478,173.376693 C298.839638,173.527718 299.064667,174.50938 298.314568,175.642068 C296.589339,177.982955 294.93912,180.474868 293.138881,182.740242 C290.813573,185.760742 288.263235,188.554705 286.012936,191.650717 C285.037807,192.934429 284.737767,194.671217 284.137687,196.256979 C283.687628,197.465179 283.162558,198.597867 282.862518,199.881579 C282.487469,201.467342 282.112419,203.128617 282.037409,204.789891 C282.037409,205.393991 282.787508,206.149116 283.387588,206.602191 C285.337847,207.961416 287.588145,207.810391 289.763434,207.432829 C291.638682,207.130779 293.513931,206.828729 295.38918,206.526679 C295.68922,206.451166 296.064269,206.526679 296.139279,206.375654 C297.789498,204.336817 300.489856,204.714379 302.440115,203.430667 C303.565264,202.675542 304.840433,202.146954 306.040593,201.542854 C308.665941,200.183629 309.94111,197.767229 311.066259,195.275317 C313.391568,190.064955 315.641866,184.854592 317.742145,179.568718 C318.792284,176.850268 319.542383,173.90528 320.367493,171.111318 C321.717672,166.429543 323.067851,161.823281 324.193,157.065993 C325.843219,149.816794 327.343418,142.567594 328.768607,135.318394 C329.443697,131.84482 329.743737,128.371245 330.193796,124.822157 C330.268806,124.444595 330.193796,124.067032 330.193796,123.68947 C329.818747,123.311907 329.668727,123.311907 329.593717,123.236395 L329.593717,123.236395 Z" id="Shape"></path>
                    <path d="M42.3056113,205.696041 C41.4054919,205.847066 40.5053726,205.998091 39.6052532,206.073604 C38.8551537,206.149116 38.1050542,206.073604 37.3549547,205.998091 C36.1547955,205.847066 34.9546363,205.469504 33.8294871,205.545016 C31.054119,205.771554 28.7288105,204.940916 26.2534822,203.732717 C23.9281738,202.600029 21.5278554,201.618367 19.127537,200.712217 C17.3272983,200.032604 15.6770794,199.126454 14.70195,197.540692 C12.9017113,194.671217 10.0513332,193.463017 7.05093522,192.481355 C5.70075614,192.02828 4.35057705,191.575205 3.15041787,191.046617 C2.77536812,190.82008 2.47532832,190.21598 2.25029848,189.762905 C1.87524873,188.781242 1.80023878,187.573042 1.20015919,186.742405 C0.225029848,185.458692 -0.150019898,184.250492 0.150019898,182.66473 C0.90011939,178.813593 1.20015919,174.81143 2.17528853,170.960293 C2.85037807,168.166331 4.1255472,165.447881 5.25069644,162.804943 C5.77576609,161.672256 6.75089543,160.766106 7.42598497,159.708931 C8.7011541,157.670093 10.351373,155.933306 12.1516118,154.347544 C14.2518903,152.535244 16.5771988,151.553581 19.5025868,151.855631 C22.0529251,152.157681 24.6782733,152.384219 27.1536016,152.082169 C28.9538404,151.855631 30.3790294,151.478069 31.1291289,153.592419 C31.2041389,153.743444 31.4291687,153.894469 31.6541986,153.969981 C33.1543975,154.498569 33.8294871,155.404719 33.5294473,157.217018 C33.3044174,158.651756 32.8543577,159.784443 31.5791886,160.615081 C30.979109,160.992643 30.6040593,161.672256 30.2290095,162.200843 C28.7288105,164.617243 26.9285718,166.958131 25.9534424,169.601068 C24.0031837,174.735918 23.3280942,180.097305 25.053323,185.534205 C25.9534424,188.40368 27.4536414,189.234317 30.3040195,188.328167 C32.404298,187.648555 34.5795866,187.044455 36.0797856,185.458692 C37.6549945,183.721905 38.9301636,181.683067 39.9803029,179.64423 C42.5306412,174.50938 43.4307606,168.921455 43.6557904,163.182506 C43.9558302,156.914968 43.9558302,150.722944 44.4808999,144.455406 C44.8559496,140.075682 45.8310789,135.771469 46.4311585,131.391745 C46.9562282,127.691632 47.181258,123.99152 47.6313177,120.291408 C47.9313575,117.723983 48.3814172,115.156558 48.8314769,112.589133 C49.5065665,108.58697 50.2566659,104.584808 51.0817754,100.658158 C51.9068848,96.4294585 52.7319943,92.2007587 53.8571435,87.9720588 C54.4572231,85.7821964 55.8074022,83.8188715 56.5575017,81.7045216 C57.2325912,79.7411967 57.9076808,77.7023593 57.9826907,75.6635219 C58.1327106,73.1716095 59.4078797,72.1144345 61.5081583,71.585847 C64.883606,70.8307221 68.0340239,71.132772 70.9594119,73.1716095 C72.6846408,74.3042969 72.7596507,75.1349344 72.5346209,77.1737718 C72.309591,79.1370967 72.6096308,81.1759341 72.309591,83.139259 C71.7845214,86.5373214 72.309591,90.0864088 70.9594119,93.4089586 C70.1343025,95.3722835 69.6842428,97.5621459 69.2341831,99.6764959 C68.9341433,100.960208 69.1591731,102.319433 68.7841234,103.527633 C67.884004,106.095058 68.1090339,108.662483 68.3340637,111.380933 C68.5590935,114.32592 68.4840836,117.270908 67.8089941,120.215895 C67.2089145,122.632295 67.1339045,125.124207 66.8338647,127.61612 C66.383805,131.24072 65.8587354,134.940832 65.4836856,138.565432 C65.1086359,142.114519 64.8085961,145.739119 64.4335463,149.288206 C64.2085165,151.780119 63.9084767,154.347544 63.7584568,156.839456 C63.6084369,159.784443 63.533427,162.729431 63.3083971,165.598906 C63.0833673,168.241843 62.7833275,170.88478 62.4832877,173.527718 C62.4832877,173.60323 62.4082777,173.678743 62.4082777,173.829768 C62.7833275,177.680905 60.8330688,181.15448 60.1579792,184.854592 C59.7079195,187.346505 58.5827703,189.61188 57.1575813,191.72623 C55.2073226,194.520192 53.6321137,197.540692 51.5318351,200.183629 C50.106646,201.995929 48.3064073,203.581692 46.4311585,204.940916 C45.3810193,205.696041 43.8058103,205.696041 42.4556312,205.998091 C42.3056113,205.922579 42.3056113,205.771554 42.3056113,205.696041 L42.3056113,205.696041 Z" id="Shape"></path>
                    <path d="M133.817749,96.1274085 C133.29268,100.507133 133.06765,105.037883 132.16753,109.342095 C131.717471,111.380933 130.142262,113.268745 129.017113,115.156558 C128.041983,116.74232 126.916834,118.177058 125.941705,119.76282 C123.541386,123.764982 120.315958,126.785482 115.815362,128.295732 C114.315163,128.82432 112.814964,129.579445 111.239755,130.108032 C108.164347,131.165207 105.013929,131.089695 101.863511,130.410082 C99.2381628,129.805982 96.6128145,129.12637 94.0624763,128.295732 C91.7371678,127.61612 90.011939,125.879332 88.3617201,124.29357 C86.4864714,122.405757 84.6112227,120.517945 82.585954,118.705645 C76.2851183,113.042208 74.2598497,105.944033 75.6100288,97.7131709 C76.3601283,92.9558836 78.4604068,88.7271838 80.8607252,84.649509 C82.1358943,82.4596466 83.8611232,80.4963217 85.4363321,78.4574842 C85.8113819,77.9288968 86.4864714,77.4758218 86.7115012,76.8717218 C87.6116206,74.7573719 89.4118594,74.1532719 91.3621181,73.6246844 C93.1623569,73.096097 94.9625957,72.340972 96.7628344,71.8123845 C97.437924,71.585847 98.2630334,71.434822 99.0131329,71.5103345 C102.238561,71.736872 105.388979,72.038922 108.614406,72.4164845 C109.814566,72.5675095 111.014725,73.096097 111.989854,73.7757094 C113.039993,74.5308344 114.090133,74.7573719 115.290292,74.6063469 C117.240551,74.3798094 119.040789,74.6818594 120.540988,75.8900593 C121.591128,76.7206968 122.566257,77.6268468 123.391366,78.6085092 C126.166735,81.8555466 129.017113,85.0270715 131.417431,88.5761588 C132.61759,90.3129462 132.76761,92.7293461 133.36769,94.9192086 C133.51771,95.3722835 133.4427,95.900871 133.51771,96.4294585 C133.592719,96.1274085 133.667729,96.1274085 133.817749,96.1274085 L133.817749,96.1274085 Z M90.6120186,105.037883 C90.5370087,110.248245 92.8623171,114.401433 96.6878245,117.799495 C98.4130533,119.309745 100.363312,119.536283 102.538601,118.705645 C107.039197,117.04437 110.564665,114.099383 113.715083,110.474783 C117.165541,106.472621 117.76562,101.564308 118.14067,96.5804835 C118.14067,96.202921 117.99065,95.900871 117.91564,95.5233085 C116.715481,90.3884587 113.640073,86.6883464 109.139476,84.1209215 C107.864307,83.441309 106.664148,83.290284 105.388979,83.8188715 C103.73876,84.498484 102.088541,85.102584 100.588342,85.9332214 C99.3881827,86.5373214 98.6380832,86.3862964 98.0380036,85.253609 C97.5879439,84.498484 96.9128543,84.1209215 96.3127747,85.0270715 C94.5875459,87.4434714 92.7873071,89.7843588 91.437128,92.3517837 C89.7118992,95.5233085 89.1118196,98.9968834 90.3869888,102.621483 C90.4619987,103.376608 90.4619987,104.282758 90.6120186,105.037883 L90.6120186,105.037883 Z" id="Shape"></path>
                    <path d="M370.849189,117.799495 C371.599288,118.85667 372.124358,119.611795 372.649428,120.517945 C372.799447,120.744482 372.799447,121.122045 372.724437,121.424095 C372.424398,122.48127 372.949467,123.160882 373.699567,123.764982 C375.649825,125.19972 377.825114,125.954845 380.300442,125.80382 C381.350582,125.728307 382.475731,125.80382 383.52587,125.954845 C387.576407,126.634457 390.876845,125.426257 393.952253,122.632295 C397.77776,119.234233 398.0778,115.081045 397.102671,110.550295 C397.027661,110.172733 397.027661,109.79517 396.952651,109.49312 C396.727621,106.925696 396.052532,104.584808 393.127144,103.754171 C393.727223,102.319433 392.977124,102.092896 391.776965,102.017383 C389.451656,101.866358 387.801437,100.582646 386.451258,98.6948334 C385.626149,97.4866334 384.27597,96.504971 383.22583,95.447796 C381.425592,93.4844711 379.400323,91.7476837 377.900124,89.5578213 C377.300044,88.6516713 377.675094,86.9903964 377.750104,85.6311714 C377.825114,84.7250215 378.275174,83.8188715 378.350184,82.8372091 C379.025273,77.8533843 381.950661,74.3798094 385.626149,71.434822 C387.201358,70.1511096 389.001596,68.9429096 390.801835,67.8857347 C391.701955,67.3571472 392.902114,66.8285597 393.877243,66.9040722 C397.027661,67.2061222 400.178079,67.6591972 403.253487,68.4143222 C405.878835,69.0184221 408.354163,70.0755971 410.979512,70.9062346 C412.92977,71.5103345 414.880029,72.038922 416.830288,72.491997 C419.455636,73.096097 421.255875,74.8328844 422.756074,76.9472343 C423.506173,78.0799218 422.981103,79.2881217 422.231004,80.2697842 C421.405894,81.4024716 420.430765,82.3841341 419.455636,83.3657965 C418.405496,84.4229715 416.230208,84.196434 414.730009,82.9882341 C413.979909,82.3841341 413.07979,81.8555466 412.179671,81.5534966 C410.304422,80.7983716 408.654203,79.8167092 408.204143,77.6268468 C407.979114,76.4941593 407.078994,76.3431343 406.328895,76.6451843 C404.228616,77.4758218 401.828298,77.5513343 399.878039,79.0615842 C397.177681,81.1004216 394.327303,83.0637465 392.527064,86.0087339 C391.401915,87.8965463 390.801835,90.1619213 390.201756,92.3517837 C390.051736,92.9558836 390.651815,94.0885711 391.251895,94.4661336 C392.977124,95.5233085 394.777363,96.504971 396.652611,97.1845835 C400.103069,98.4682959 403.403507,100.054058 406.103865,102.696996 C407.979114,104.584808 408.879233,107.001208 409.179273,109.568633 C409.479313,112.51362 409.704342,115.458608 409.629332,118.403595 C409.554322,120.291408 409.179273,122.254732 407.979114,123.916007 C407.078994,125.124207 406.403905,126.483432 405.803825,127.842657 C404.828696,130.03252 403.103467,131.54277 401.453248,133.128532 C399.20295,135.318394 396.577601,136.677619 393.727223,137.659282 C391.101875,138.640944 388.326507,138.942994 385.551139,138.489919 C384.42599,138.338894 383.15082,138.565432 382.175691,138.112357 C380.150422,137.206207 378.275174,135.922494 376.399925,134.789807 C375.649825,134.336732 374.974736,133.808144 374.374656,133.204044 C372.724437,131.391745 370.474139,131.467257 368.44887,130.787645 C367.548751,130.485595 366.498612,130.33457 365.748512,129.881495 C364.998413,129.42842 364.098293,128.52227 364.098293,127.842657 C364.173303,125.50177 362.748114,124.29357 361.022885,123.236395 C359.372666,122.17922 357.722448,121.197557 356.072229,120.140383 C355.472149,119.76282 354.947079,119.309745 355.772189,118.55462 C355.922209,118.403595 356.072229,118.101545 355.997219,117.95052 C355.097099,115.987195 356.897338,115.685145 357.947477,115.23207 C359.072627,114.703483 360.422806,114.476945 361.697975,114.401433 C362.373064,114.401433 363.198174,114.854508 363.798254,115.307583 C365.298452,116.289245 366.723642,117.421933 368.148831,118.403595 C368.52388,118.630133 369.12396,118.55462 369.49901,118.479108 C370.174099,118.25257 370.624159,117.95052 370.849189,117.799495 L370.849189,117.799495 Z" id="Shape"></path>
                    <path d="M74.1098298,60.7120475 C72.0095512,60.938585 69.9092726,61.3161475 67.8089941,61.3161475 C64.883606,61.3916599 63.0083573,59.428335 61.2831285,57.3894976 C60.7580588,56.7853976 60.2329892,56.1057852 59.5578996,55.6527102 C57.0825713,53.9914353 55.9574221,51.6505479 55.7323922,48.781073 C55.4323524,45.2319856 55.9574221,44.4768607 59.2578598,43.1931482 C59.4078797,43.1176357 59.6329096,43.1176357 59.7079195,42.9666107 C60.7580588,41.3053358 62.1832479,41.6828983 63.8334667,41.7584108 C65.9337453,41.7584108 67.959014,42.4380232 69.9842826,42.3625107 C73.9598099,42.2869982 77.6352974,43.7972482 81.6108247,43.7972482 C83.4860734,43.7972482 84.6862326,45.0054481 84.9862724,46.8932606 C85.0612824,47.1953105 84.9862724,47.572873 85.1362923,47.7994105 C86.8615211,51.1974729 85.1362923,53.7648978 83.2610436,56.2568102 C81.5358148,58.5976976 77.0352178,60.78756 74.1098298,60.7120475 L74.1098298,60.7120475 Z" id="Shape"></path>
                    <path d="M370.399129,53.1607978 C370.774179,51.4240104 370.999209,50.0647854 371.449268,48.7055605 C372.424398,45.4585231 373.324517,42.2114857 374.449666,39.1154734 C375.274776,36.925611 376.324915,34.8867736 376.324915,32.4703737 C376.324915,31.5642237 377.975134,30.6580737 379.100283,30.7335862 C380.675492,30.8090987 382.325711,30.7335862 383.82591,31.1866612 C385.701159,31.7152487 387.426387,32.5458861 389.151616,33.3765236 C390.126746,33.8295986 390.276766,34.6602361 389.826706,35.868436 C389.151616,37.5297109 389.001596,39.3420109 388.626547,41.1543108 C388.551537,41.4563608 388.551537,41.8339233 388.401517,42.0604608 C386.751298,45.6850606 385.101079,49.3096605 383.30084,52.8587478 C382.475731,54.4445102 381.500602,55.8792477 380.300442,57.2384726 C379.550343,58.0691101 378.425194,58.5976976 377.450064,59.2017975 C377.300044,59.27731 376.849985,59.27731 376.699965,59.126285 C374.974736,57.9935976 373.174497,56.8609101 371.599288,55.5771977 C371.074219,54.9730977 370.774179,53.8404103 370.399129,53.1607978 L370.399129,53.1607978 Z" id="Shape"></path>
                    <path d="M504.291888,170.658243 C505.116998,164.164168 505.942107,157.670093 506.767217,151.100506 C507.067256,149.061669 507.442306,146.947319 507.742346,144.908481 C507.817356,144.681944 507.667336,144.379894 507.592326,143.926819 C506.992246,144.153357 506.467177,144.153357 506.167137,144.379894 C503.391769,146.569756 500.166341,146.267706 497.015923,146.192194 C493.415446,146.116681 491.015127,144.153357 488.989859,141.359394 C486.96459,138.565432 484.639282,136.073519 482.463993,133.355069 C481.713894,132.448919 481.038804,131.467257 480.288705,130.561107 C479.088545,129.050857 478.038406,127.389582 476.688227,126.030357 C474.137889,123.538445 473.012739,120.517945 472.63769,117.04437 C471.9626,111.078883 473.462799,105.641983 476.163157,100.280596 C478.038406,96.5804835 479.538605,92.7293461 481.188824,88.9537213 C482.914053,85.102584 485.689421,82.1575966 488.914849,79.5901717 C489.589938,79.0615842 490.190018,78.3064592 490.865107,77.7778718 C491.690217,77.1737718 492.665346,76.6451843 493.565466,76.1921093 C495.215684,75.4369844 496.940913,74.7573719 498.666142,74.0022469 C501.3665,72.8695595 504.066858,71.6613595 506.992246,72.189947 C509.917634,72.7185345 512.768013,73.8512219 515.768411,74.5308344 C518.243739,75.1349344 520.193998,76.4941593 521.694197,78.5329967 C521.769206,78.6840217 521.994236,78.7595342 522.144256,78.8350467 C522.294276,78.9105592 522.444296,78.9860717 522.894356,79.2126092 C523.269405,77.7778718 523.719465,76.4186468 524.019505,74.9839094 C524.544575,72.491997 525.069644,70.0000846 525.219664,67.4326597 C525.369684,65.9979223 524.919624,64.4876723 524.619585,63.0529349 C524.394555,62.2222974 524.769604,61.4671724 525.669724,61.5426849 C527.694992,61.6937099 529.795271,61.9202474 531.82054,62.2978099 C532.495629,62.4488349 533.095709,62.9774224 533.620778,63.4304974 C535.195987,64.9407473 536.771196,66.6020222 538.346405,68.1122722 C539.921614,69.6980346 540.896744,71.6613595 541.196783,73.8512219 C541.346803,75.4369844 541.121773,77.0982593 541.046763,78.6840217 L541.046763,82.2331091 C541.046763,87.3679589 540.821734,92.4272962 539.621574,97.4866334 C538.946485,100.205083 538.421415,102.999046 537.971355,105.717496 C537.671316,107.680821 537.671316,109.719658 537.596306,111.682983 C537.446286,114.778995 537.296266,117.95052 537.071236,121.046532 C536.996226,123.009857 536.996226,125.048695 536.696186,127.01202 C536.171117,130.485595 535.421017,133.959169 534.895948,137.432744 C534.445888,139.924657 534.220858,142.416569 533.770798,144.832969 C533.320739,147.098344 532.645649,149.363719 532.120579,151.704606 C531.89555,152.610756 531.97056,153.516906 531.82054,154.498569 C531.22046,158.953806 530.69539,163.409043 530.095311,167.864281 C529.720261,170.507218 533.470759,142.945157 533.095709,145.663606 C532.570639,149.212694 532.345609,152.761781 531.89555,156.310869 C531.5205,159.180343 531.22046,162.049818 530.69539,164.843781 C530.245331,167.637743 529.420221,170.356193 528.970162,173.150155 C528.295072,177.982955 528.070042,182.96678 527.244933,187.724067 C526.419823,192.33033 525.069644,196.785567 523.944495,201.391829 C523.494435,203.204129 523.269405,205.091941 522.519306,206.753216 C521.019107,210.075766 519.293878,213.171779 517.643659,216.418816 C517.26861,217.098428 517.04358,217.778041 516.66853,218.457653 C516.29348,219.137266 516.4435,220.345466 515.093321,220.043416 C515.018311,220.043416 515.018311,220.496491 514.868291,220.572003 C514.568251,220.798541 514.193202,221.100591 513.818152,221.176103 C512.317953,221.478153 510.667734,221.402641 509.392565,222.082253 C507.592326,223.139428 506.017117,224.649678 504.441908,226.084416 C503.616799,226.839541 503.016719,227.519153 501.74155,227.217103 C501.21648,227.066078 500.616401,227.368128 500.091331,227.594666 C497.991053,228.576328 495.365704,228.047741 493.715485,226.386466 C491.915247,224.574166 490.115008,222.837378 488.239759,221.100591 C487.71469,220.647516 487.11461,220.345466 486.51453,219.967903 C483.214093,217.929066 479.913655,215.890229 476.613217,213.775879 C472.33765,211.132941 469.412262,207.130779 466.336854,203.204129 C465.436735,202.071442 464.011546,201.391829 462.736376,200.561192 C461.236177,199.579529 459.660969,198.824404 458.23578,197.767229 C457.33566,197.087617 456.435541,196.105954 457.41067,194.746729 C457.56069,194.520192 457.6357,194.218142 457.56069,193.991604 C456.660571,191.197642 458.910869,189.234317 459.360929,186.817917 C459.810988,184.250492 460.936138,181.985117 462.586357,179.94628 C464.011546,178.209493 465.436735,176.548218 466.861924,174.81143 C468.062083,173.376693 469.562282,173.150155 471.287511,173.754255 C473.312779,174.433868 475.263038,175.11348 477.288307,175.793093 C477.813376,175.944118 478.338446,176.01963 478.863516,176.095143 C480.663754,176.32168 481.638884,177.52988 481.563874,179.34218 C481.488864,181.15448 480.438724,182.589217 479.688625,184.099467 C478.638486,186.28933 477.513336,188.554705 476.988267,190.895592 C476.613217,192.405842 477.213297,194.218142 477.588346,195.803904 C477.738366,196.332492 478.563476,196.936592 479.088545,196.936592 C481.863914,197.163129 484.564272,197.238642 487.33964,197.238642 C488.464789,197.238642 489.139879,196.483517 489.889978,195.501854 C491.765227,192.858917 494.090535,190.593542 496.940913,189.234317 C500.016321,187.79958 501.44151,185.534205 501.96658,182.211655 L504.291888,170.658243 L504.291888,170.658243 Z M490.640078,127.163045 C491.765227,126.70997 492.965386,126.483432 493.865505,125.879332 C497.390973,123.311907 500.916441,120.744482 504.216878,117.95052 C509.617595,113.344258 514.193202,107.907358 517.26861,101.413283 C518.318749,99.1479084 519.068848,96.655996 519.818948,94.2395961 C519.968968,93.7110086 519.593918,92.9558836 519.293878,92.4272962 C518.093719,90.2374338 516.51851,88.1230838 515.618391,85.8577089 C514.568251,83.139259 513.368092,81.1004216 510.367694,80.4963217 C507.442306,79.8922217 504.891968,81.1004216 503.466779,83.743359 C502.866699,84.800534 502.1166,85.7821964 501.14147,86.5373214 C499.191212,87.9720588 497.766023,89.7843588 496.865903,92.0497337 C496.490854,93.0313961 495.965784,94.0130586 495.290694,94.7681836 C493.790495,96.353946 492.965386,98.1662459 492.365306,100.205083 C491.690217,102.772508 491.015127,105.415446 490.415048,107.982871 C490.190018,108.964533 489.889978,109.946195 489.814968,110.927858 C489.589938,112.966695 489.514928,115.005533 489.364908,117.04437 C489.214889,119.838333 488.989859,122.707807 488.839839,125.50177 C488.839839,126.70997 489.364908,127.163045 490.640078,127.163045 L490.640078,127.163045 Z" id="Shape"></path>
                    <path d="M727.821537,103.452121 C727.671517,104.207246 727.521497,104.962371 727.296467,105.717496 C726.846408,107.303258 726.321338,108.88902 725.871278,110.474783 C724.746129,114.778995 721.970761,118.25257 720.095512,122.254732 C719.495432,123.538445 717.995234,124.369082 717.095114,125.50177 C714.919826,128.446757 712.069448,130.410082 708.91903,132.14687 C705.168532,134.261219 701.117995,135.016344 696.917438,134.638782 C694.667139,134.412244 692.341831,134.034682 690.166542,133.506094 C687.691214,132.826482 686.116005,130.863157 685.140876,128.673295 C683.640677,125.426257 682.440518,122.028195 681.090339,118.705645 C679.965189,115.911683 678.61501,113.11772 677.564871,110.248245 C675.914652,105.793008 675.689622,101.186746 675.839642,96.504971 C676.214692,88.2741088 678.91505,80.8738841 683.115607,74.0022469 C684.315766,72.038922 686.416045,70.6796971 688.066264,69.0184221 C690.466582,66.4509972 693.76702,65.8468973 696.917438,65.5448473 C699.167736,65.3183098 701.568055,65.2427973 703.818353,66.4509972 C706.368691,67.8102222 709.219069,68.6408596 711.844418,69.7735471 C713.494637,70.5286721 715.144855,71.5103345 716.645054,72.4164845 C717.470164,72.945072 718.070243,73.0205845 718.670323,72.1144345 C721.595711,67.1306097 724.071039,61.8447349 725.496228,56.2568102 C726.321338,53.0097728 727.596507,50.0647854 729.021696,47.119798 C729.771796,45.6095481 730.146845,43.9482732 730.746925,42.3625107 C731.121975,41.3808483 731.422014,40.2481608 731.947084,39.3420109 C733.822333,36.0949735 735.997621,32.9989611 737.79786,29.6764113 C739.523089,26.5048864 740.798258,23.1823365 742.373467,19.9352992 C743.798656,16.9147993 745.298855,13.9698119 747.699173,11.6289245 C749.949472,9.43906211 751.149631,6.64509972 751.074621,3.47357486 C751.074621,1.58576243 752.12476,0.151024994 754.000009,0.377562484 C756.850387,0.755124969 759.925795,0.830637465 762.401123,2.64293739 C764.801442,4.37972482 765.851581,7.02266221 766.601681,9.7411121 C766.7517,10.1941871 766.301641,10.8737995 766.001601,11.3268745 C763.826312,14.1963494 762.251104,17.0658243 762.626153,20.9924741 C763.001203,24.8436115 762.326113,28.6192363 761.200964,32.3193487 C760.600885,34.2826736 760.600885,36.3970235 760.225835,38.4358609 C759.625755,42.1359732 759.025676,45.8360856 758.425596,49.5361979 C757.975536,52.4056728 757.375457,55.2751477 756.850387,58.1446226 C756.325318,60.78756 755.725238,63.4304974 755.275178,66.1489473 C754.975138,67.8857347 754.900129,69.6225221 754.750109,71.3593095 C754.675099,72.491997 754.675099,73.6246844 754.525079,74.7573719 C754.000009,78.9105592 753.24991,83.0637465 752.79985,87.2169339 C752.49981,90.1619213 752.57482,93.1069086 752.34979,96.051896 C752.27478,97.3356085 751.824721,98.6193209 751.674701,99.9030333 C751.374661,103.980708 751.149631,108.133896 750.849591,112.287083 C750.624561,114.93002 750.474541,117.64847 749.874462,120.291408 C749.499412,121.801657 749.349392,123.160882 749.799452,124.822157 C751.674701,123.68947 753.474939,122.707807 755.200168,121.499607 C759.850785,118.25257 764.501402,114.854508 769.152019,111.531958 C770.277168,110.70132 770.727228,110.776833 771.102278,112.060545 C771.327307,112.740158 771.402317,113.570795 771.477327,114.32592 C771.552337,115.609633 771.552337,116.893345 771.627347,118.177058 C771.627347,118.781158 771.702357,119.385258 771.552337,119.913845 C770.802238,122.556782 770.052138,125.275232 769.227029,127.91817 C768.476929,130.259057 767.80184,132.524432 766.90172,134.789807 C766.451661,136.073519 765.401521,137.130694 765.026472,138.414407 C764.201362,141.434907 762.251104,143.700282 760.600885,146.192194 C759.550745,147.777956 757.900526,148.910644 756.325318,150.043331 C754.600089,151.327044 752.57482,150.722944 750.699571,150.194356 C750.174502,150.043331 749.649432,149.892306 749.124362,149.967819 C744.698775,150.420894 740.348198,146.871806 738.847999,142.945157 C737.122771,138.489919 735.322532,134.034682 733.522293,129.654957 C733.222253,128.975345 732.922213,128.295732 732.397144,127.767145 C730.296865,125.275232 729.396746,122.254732 728.871676,119.15872 C728.046567,114.476945 727.746527,109.719658 728.121577,104.962371 C728.121577,104.509296 728.121577,103.980708 728.196587,103.527633 C728.196587,103.527633 727.971557,103.527633 727.821537,103.452121 L727.821537,103.452121 Z M708.31895,85.102584 C705.693602,85.1780965 703.443303,85.8577089 701.418035,87.7455214 C699.842826,89.2557713 698.342627,90.6149962 697.292488,92.5028087 C696.692408,93.5599836 695.567259,94.3906211 694.892169,95.447796 C692.94191,98.9213709 691.741751,102.621483 691.366702,106.623646 C691.141672,109.417608 691.141672,112.21157 691.066662,115.005533 C691.066662,115.458608 691.291692,115.911683 691.441711,116.364758 C691.891771,116.213733 692.491851,116.213733 692.791891,115.987195 C694.667139,114.174895 696.692408,112.438108 698.342627,110.474783 C700.142866,108.209408 701.643065,105.717496 703.293283,103.301096 C704.418433,101.564308 705.543582,99.9030333 706.518711,98.0907334 C707.418831,96.504971 708.24394,94.9192086 708.99404,93.2579336 C710.119189,90.9925587 711.244338,88.6516713 712.219467,86.3862964 C712.744537,85.253609 712.219467,84.4229715 711.094318,84.5739965 C710.269209,84.7250215 709.294079,84.8760465 708.31895,85.102584 L708.31895,85.102584 Z" id="Shape"></path>
                    <path d="M585.677683,103.376608 C584.927584,105.490958 584.252494,107.529796 583.427385,109.644145 C582.602275,111.60747 581.777166,113.570795 580.802036,115.458608 C580.051937,116.893345 579.226828,118.25257 578.326708,119.611795 C577.426589,120.895507 576.451459,122.103707 575.55134,123.38742 C575.02627,124.067032 574.651221,124.746645 574.051141,125.275232 C572.025872,126.936507 569.625554,127.767145 567.000206,128.069195 C566.100086,128.22022 565.199967,128.748807 564.299848,128.82432 C560.99941,129.12637 557.623962,130.485595 554.398534,128.597782 C552.148236,127.31407 551.098097,125.048695 550.423007,122.632295 C549.447878,119.234233 548.322728,115.83617 547.572629,112.362595 C546.74752,108.662483 545.92241,104.962371 545.54736,101.262258 C545.097301,96.807021 545.92241,92.3517837 546.972549,88.0475713 C548.022689,83.6678465 549.822927,79.6656842 552.598296,76.0410843 C554.323524,73.7757094 556.648833,72.491997 559.274181,71.5103345 C560.1743,71.132772 561.14943,70.7552096 562.049549,70.4531596 C564.599887,69.5470096 567.075216,68.4898347 569.700564,67.8857347 C571.275773,67.5081722 573.151022,67.6591972 574.801241,68.0367597 C577.351579,68.6408596 579.751897,69.6225221 582.227225,70.4531596 C582.377245,70.5286721 582.602275,70.6041846 582.677285,70.7552096 C583.502395,72.8695595 586.352773,73.6246844 586.502793,76.2676218 C586.502793,76.4186468 587.102872,76.6451843 587.327902,76.5696718 C588.303031,76.1165968 589.203151,75.6635219 589.428181,74.3042969 C589.80323,72.643022 590.47832,70.9817471 590.92838,69.3204721 C591.153409,68.4898347 591.153409,67.6591972 591.453449,66.8285597 C591.603469,66.2999722 591.903509,65.5448473 592.278559,65.3938223 C593.703748,65.0162598 595.128937,64.7897223 596.629136,64.6386973 C597.004185,64.6386973 597.604265,65.1672848 597.829295,65.5448473 C599.404504,68.3388097 599.779554,71.283797 599.404504,74.4553219 C598.954444,77.9288968 598.879434,81.4024716 598.654404,84.8760465 C598.429375,88.6516713 598.354365,92.4272962 598.129335,96.1274085 C598.054325,96.807021 597.904305,97.5621459 597.679275,98.2417584 C596.704146,101.111233 596.929176,104.056221 597.454245,107.001208 C597.679275,108.511458 597.604265,110.09722 597.904305,111.531958 C598.129335,112.891183 598.729414,114.174895 599.179474,115.53412 C599.254484,115.760658 599.779554,115.911683 600.079593,115.987195 C602.179872,116.515783 604.280151,116.591295 606.305419,115.609633 C607.655598,115.005533 608.705738,115.23207 609.305817,116.591295 C610.205937,118.630133 610.881026,120.744482 611.556116,122.858832 C611.856155,123.764982 611.931165,124.822157 611.931165,125.80382 C611.856155,128.82432 610.130927,130.63662 607.655598,132.071357 C605.855359,133.128532 604.055121,132.901994 602.179872,133.053019 C597.379235,133.355069 595.353967,129.654957 593.778758,126.332407 C591.678479,121.801657 590.47832,116.817833 588.903111,111.985033 C588.002992,109.115558 587.252892,106.246083 586.352773,103.376608 C585.977723,103.452121 585.827703,103.376608 585.677683,103.376608 L585.677683,103.376608 Z M582.077206,80.5718342 C581.252096,80.5718342 580.501997,80.3452967 579.826907,80.4963217 C576.976529,81.1004216 573.901121,81.3269591 571.725833,83.743359 C570.975733,84.649509 570.150624,85.4801464 569.400524,86.3862964 C566.700166,89.1047463 564.074818,91.8231962 561.37446,94.6171586 C560.99941,94.9947211 560.84939,95.5233085 560.69937,96.051896 C560.24931,97.411121 559.799251,98.8458584 559.574221,100.205083 C559.199171,102.017383 559.049151,103.829683 559.424201,105.717496 C562.199569,104.660321 580.201957,84.7250215 582.077206,80.5718342 L582.077206,80.5718342 Z" id="Shape"></path>
                    <path d="M774.477725,97.411121 C774.177685,90.8415337 774.027666,85.7066839 775.077805,80.4963217 C775.827904,76.8717218 777.478123,73.8512219 779.653412,70.9817471 C782.20375,67.5836847 784.904108,64.2611348 787.604466,60.938585 C789.029655,59.2017975 790.604864,57.6160351 792.255083,56.1057852 C792.855163,55.5771977 793.905302,55.2751477 794.730412,55.3506602 C796.005581,55.5016852 797.28075,56.0302727 798.555919,56.5588602 C799.456038,56.9364226 800.131128,57.7670601 801.031247,57.9935976 C804.331685,58.6732101 806.056914,61.4671724 808.382222,63.4304974 C810.332481,65.0917723 812.43276,66.5265097 814.458028,68.1122722 C817.158386,70.2266221 820.083774,72.491997 820.833874,75.9655718 C821.358943,78.3064592 822.934152,80.4963217 822.259063,83.139259 C822.184053,83.5168215 822.409083,84.045409 822.559103,84.498484 C822.934152,85.9332214 822.334073,87.2924464 821.133914,88.1985963 C820.308804,88.8026963 819.408685,89.4823088 818.883615,90.3129462 C817.908486,91.8987087 816.483297,92.8803711 814.983098,93.9375461 C811.00757,96.7315085 806.431964,97.6376584 801.781347,98.3927834 C799.906098,98.6948334 798.030849,99.3744459 796.155601,99.4499584 C793.905302,99.4499584 792.030053,100.507133 789.929775,100.733671 C788.729616,100.884696 788.354566,101.715333 788.504586,102.848021 C788.879635,104.962371 789.404705,107.152233 789.704745,109.266583 C789.929775,110.39927 789.779755,111.531958 790.079795,112.664645 C790.604864,114.93002 791.129934,117.195395 791.880033,119.385258 C792.480113,121.197557 794.355362,121.27307 795.780551,121.122045 C800.056118,120.819995 804.331685,120.215895 808.007173,117.95052 C811.75767,115.685145 815.433157,113.042208 818.883615,110.248245 C822.259063,107.529796 825.259461,104.358271 828.484889,101.413283 C828.709918,101.186746 829.309998,100.960208 829.460018,101.035721 C829.985088,101.488796 830.660177,102.017383 830.735187,102.621483 C830.885207,103.678658 830.735187,104.811346 830.510157,105.868521 C829.985088,108.511458 829.309998,111.078883 828.709918,113.72182 C828.559899,114.62797 828.559899,115.53412 828.484889,116.44027 C828.334869,117.799495 828.184849,119.234233 828.034829,120.593457 C827.959819,121.27307 827.809799,122.028195 827.659779,122.707807 C827.509759,123.311907 827.509759,123.916007 827.20972,124.444595 C826.00956,126.332407 824.809401,128.295732 823.384212,129.957007 C822.559103,130.93867 821.208924,131.54277 820.158784,132.373407 C819.933754,132.524432 819.633715,132.599944 819.483695,132.826482 C817.608446,135.016344 815.133118,136.149032 812.507769,136.753132 C808.982302,137.583769 805.381824,138.565432 801.781347,138.791969 C796.38063,139.094019 791.880033,136.828644 788.579596,132.297895 C786.179277,128.975345 784.154009,125.50177 782.65381,121.726145 C780.328501,115.987195 777.928183,110.323758 775.827904,104.509296 C774.927785,101.715333 774.777765,98.8458584 774.477725,97.411121 L774.477725,97.411121 Z" id="Shape"></path>
                    <path d="M872.590739,106.548133 C872.815769,102.545971 873.040798,98.9213709 873.265828,95.2212585 C873.415848,92.4272962 873.415848,89.7088463 873.565868,86.9148839 C873.715888,83.743359 873.940918,80.5718342 874.165948,77.4003093 C874.240958,76.1921093 873.715888,75.6635219 872.590739,75.6635219 C870.64048,75.5880094 868.690221,75.2859594 866.814973,75.6635219 C865.539804,75.8900593 864.339644,77.0982593 863.214495,77.9288968 C862.014336,78.8350467 861.714296,80.1187592 861.339246,81.5534966 C860.889187,83.2147715 859.914057,84.649509 859.163958,86.2352714 C858.263838,88.1985963 857.363719,90.0864088 856.53861,92.0497337 C856.38859,92.3517837 856.23857,92.7293461 856.23857,93.1069086 C856.38859,97.260096 854.513341,100.809183 853.538212,104.660321 C852.563082,108.360433 851.287913,112.21157 852.038013,116.213733 C852.338052,117.875008 852.713102,119.536283 853.013142,121.197557 C853.538212,123.99152 851.062883,127.31407 847.612426,126.558945 C845.062087,126.030357 844.086958,124.746645 843.411869,122.632295 C842.811789,120.66897 842.286719,118.630133 841.76165,116.666808 C840.86153,113.495283 840.111431,110.323758 838.911272,107.303258 C837.936142,104.811346 837.111033,102.017383 834.335665,100.658158 C834.110635,100.582646 834.035625,99.6764959 834.185645,99.2989334 C835.760854,95.749846 837.336063,92.1252462 839.061291,88.6516713 C840.336461,86.0087339 840.78652,83.2147715 841.31159,80.4208092 C841.986679,77.0982593 842.661769,73.7757094 843.261849,70.5286721 C843.486878,69.1694471 843.861928,67.8102222 842.886799,66.5265097 C842.061689,65.4693348 842.511749,64.4876723 843.936938,64.1101098 C845.962207,63.5815224 847.837456,63.7325474 849.712704,65.1672848 C850.762844,65.9979223 851.587953,66.7530472 852.113023,67.9612472 C852.413062,68.7163721 852.938132,68.5653472 853.538212,68.2632972 C855.86352,67.0550972 858.188829,65.7713848 860.589147,64.7897223 C864.489664,63.2039599 868.615211,62.7508849 872.815769,63.0529349 C873.565868,63.1284474 874.390978,63.3549849 874.991057,63.8080598 C878.441515,66.6020222 881.966982,69.3959846 885.26742,72.491997 C886.24255,73.398147 886.542589,75.1349344 887.142669,76.4941593 C888.717878,80.2697842 888.042788,84.2719465 888.567858,88.1985963 C888.942908,91.0680712 889.242947,94.0885711 889.092928,96.958046 C888.867898,102.319433 888.792888,107.680821 887.367699,112.891183 C886.767619,115.081045 886.16754,117.270908 885.64247,119.46077 C885.34243,120.744482 885.19241,122.028195 884.96738,123.311907 C884.89237,123.68947 884.89237,124.218057 885.1174,124.369082 C886.01752,125.124207 886.01752,126.10587 886.24255,127.163045 C886.542589,128.899832 887.067659,130.63662 887.442709,132.448919 C887.667739,133.732632 886.692609,134.638782 885.49245,134.110194 C882.792092,133.053019 880.541793,131.391745 879.491654,128.597782 C877.691415,123.538445 875.966186,118.403595 874.390978,113.193233 C873.490858,110.852345 873.115808,108.58697 872.590739,106.548133 L872.590739,106.548133 Z" id="Shape"></path>
                    <path d="M631.283732,69.2449596 C631.808802,68.8673971 632.183852,68.6408596 632.483891,68.3388097 C636.534429,64.6386973 641.485085,63.5060099 646.735782,63.2794724 C650.411269,63.1284474 653.636697,64.5631848 656.712105,66.4509972 C659.562483,68.2632972 662.637891,69.0184221 666.013339,68.7918846 C668.263637,68.5653472 669.013737,69.0939346 669.763836,71.283797 C670.588946,73.8512219 671.564075,76.4186468 672.014135,79.0615842 C672.314174,80.5718342 671.864115,82.1575966 671.564075,83.743359 C671.489065,84.1209215 670.813975,84.498484 670.363916,84.5739965 C666.313379,85.102584 662.937931,83.592334 659.862523,81.1759341 C657.162165,79.0615842 654.236777,78.9105592 651.086359,80.2697842 C647.710911,81.7800341 645.610633,84.2719465 643.960414,87.3679589 C642.910274,89.2557713 641.635105,91.0680712 640.734986,93.0313961 C639.984886,94.6171586 639.684847,96.353946 639.009757,97.9397084 C638.034628,100.129571 636.909478,102.243921 635.859339,104.358271 C635.709319,104.660321 635.484289,104.962371 635.484289,105.188908 C635.859339,107.982871 634.20912,110.248245 633.609041,112.81567 C632.933951,115.83617 632.708921,118.932183 631.883812,121.87717 C630.983692,125.124207 631.133712,128.597782 629.483493,131.54277 C628.583374,133.204044 627.458225,134.789807 625.132916,134.714294 C624.007767,134.714294 622.957628,135.016344 621.832479,135.242882 C621.082379,135.393907 620.782339,135.016344 620.632319,134.336732 C620.33228,132.901994 619.80721,131.467257 619.43216,130.108032 C619.28214,129.503932 619.28214,128.975345 619.057111,128.371245 C618.757071,127.31407 618.382021,126.332407 618.081981,125.275232 C617.781941,124.142545 617.481902,123.009857 617.106852,121.87717 C616.581782,120.140383 616.881822,118.101545 615.156593,116.817833 C615.081583,116.74232 615.006573,116.666808 615.006573,116.591295 C615.231603,114.778995 614.406494,113.344258 613.206335,112.060545 C613.056315,111.90952 613.206335,111.229908 613.431364,110.852345 C614.406494,108.88902 615.531643,106.925696 616.506772,104.886858 C618.081981,101.715333 619.80721,98.6193209 621.007369,95.2212585 C623.107648,89.1047463 624.907887,82.9127216 625.282936,76.3431343 C625.432956,73.7001969 625.507966,71.0572595 625.582976,68.4143222 C625.582976,67.4326597 625.507966,66.5265097 624.382817,66.0734348 C624.082777,65.9979223 623.782737,65.4693348 623.782737,65.1672848 C623.782737,64.9407473 624.157787,64.5631848 624.457827,64.4876723 C626.633115,63.5815224 628.883414,64.5631848 629.858543,66.6020222 C630.383613,67.5081722 630.833673,68.2632972 631.283732,69.2449596 L631.283732,69.2449596 Z" id="Shape"></path>
                </g>
            </g>
        </g>
    </g>
</svg>