<?xml version="1.0" encoding="UTF-8" standalone="no"?>
<svg width="81px" height="80px" viewBox="0 0 81 80" version="1.1" xmlns="http://www.w3.org/2000/svg" xmlns:xlink="http://www.w3.org/1999/xlink" xmlns:sketch="http://www.bohemiancoding.com/sketch/ns">
    <!-- Generator: Sketch 3.2.2 (9983) - http://www.bohemiancoding.com/sketch -->
    <title>mail-white-default</title>
    <desc>Created with Sketch.</desc>
    <defs></defs>
    <g id="Home" stroke="none" stroke-width="1" fill="none" fill-rule="evenodd" sketch:type="MSPage">
        <g id="mail-white-default" sketch:type="MSArtboardGroup" transform="translate(0.040000, 0.000000)">
            <g id="Fill-203-+-Fill-1051-+-Fill-1051" sketch:type="MSLayerGroup" transform="translate(10.000000, 10.000000)">
                <g id="Fill-203-+-Fill-1051" fill-opacity="0.9" fill="#FFFFFF" sketch:type="MSShapeGroup">
                    <path d="M30,60 C46.5698495,60 60,46.5663217 60,29.9982361 C60,13.4319144 46.5698495,0 30,0 C13.4283866,0 0,13.4319144 0,29.9982361 C0,46.5663217 13.4283866,60 30,60" id="Fill-203"></path>
                </g>
                <g id="Fill-1051" transform="translate(15.000000, 19.000000)" stroke="#000000" stroke-width="3" sketch:type="MSShapeGroup" stroke-linejoin="round">
                    <path d="M29.6679537,19.4473016 C29.6679537,20.6096497 28.7057169,21.6506417 27.6549061,21.6506417 L2.49181201,21.6506417 C1.4410012,21.6506417 0.478764479,20.6096497 0.478764479,19.4473016 L0.478764479,2.72351614 C0.478764479,1.56005461 1.4410012,0.496795497 2.49181201,0.496795497 L27.6549061,0.496795497 C28.7057169,0.496795497 29.6679537,1.56005461 29.6679537,2.72351614 L29.6679537,19.4473016 L29.6679537,19.4473016 Z" id="Stroke-3747"></path>
                    <path d="M26.3320463,4.95309568 L14.96139,14.260788 L3.59073359,4.95309568" id="Stroke-3748" stroke-linecap="round"></path>
                    <path d="M3.38223938,15.6022514 L7.55382659,12.990196" id="Stroke-3749" stroke-linecap="round"></path>
                    <path d="M26.8957529,15.6022514 L22.7241657,12.990196" id="Stroke-3750" stroke-linecap="round"></path>
                </g>
            </g>
        </g>
    </g>
</svg>